<?xml version="1.0" encoding="utf-8"?><svg xmlns="http://www.w3.org/2000/svg" xmlns:xlink="http://www.w3.org/1999/xlink"><symbol viewBox="0 0 24 24" id="icon-angry" xmlns="http://www.w3.org/2000/svg"><g stroke="currentColor" stroke-linecap="round" stroke-linejoin="round" stroke-width="2"><circle cx="12" cy="12" r="10"/><path d="M16 16s-1.5-2-4-2-4 2-4 2m-.5-8L10 9m4 0 2.5-1M9 10h.01M15 10h.01"/></g></symbol><symbol viewBox="0 0 24 24" id="icon-calendar" xmlns="http://www.w3.org/2000/svg"><g stroke="currentColor" stroke-linecap="round" stroke-linejoin="round" stroke-width="2"><path d="M8 2v4m8-4v4"/><rect width="18" height="18" x="3" y="4" rx="2"/><path d="M3 10h18"/></g></symbol><symbol viewBox="0 0 24 24" id="icon-check" xmlns="http://www.w3.org/2000/svg"><path stroke="currentColor" stroke-linecap="round" stroke-linejoin="round" stroke-width="2" d="M20 6 9 17l-5-5"/></symbol><symbol viewBox="0 0 24 24" id="icon-chevron_down" xmlns="http://www.w3.org/2000/svg"><path stroke="currentColor" stroke-linecap="round" stroke-linejoin="round" stroke-width="2" d="m6 9 6 6 6-6"/></symbol><symbol viewBox="0 0 24 24" id="icon-chevron_left" xmlns="http://www.w3.org/2000/svg"><path stroke="currentColor" stroke-linecap="round" stroke-linejoin="round" stroke-width="2" d="m15 18-6-6 6-6"/></symbol><symbol viewBox="0 0 24 24" id="icon-chevron_right" xmlns="http://www.w3.org/2000/svg"><path stroke="currentColor" stroke-linecap="round" stroke-linejoin="round" stroke-width="2" d="m9 18 6-6-6-6"/></symbol><symbol viewBox="0 0 24 24" id="icon-chevron_up" xmlns="http://www.w3.org/2000/svg"><path stroke="currentColor" stroke-linecap="round" stroke-linejoin="round" stroke-width="2" d="m18 15-6-6-6 6"/></symbol><symbol viewBox="0 0 24 24" id="icon-chevrons_up_down" xmlns="http://www.w3.org/2000/svg"><path stroke="currentColor" stroke-linecap="round" stroke-linejoin="round" stroke-width="2" d="m7 15 5 5 5-5M7 9l5-5 5 5"/></symbol><symbol viewBox="0 0 24 24" id="icon-circle_check" xmlns="http://www.w3.org/2000/svg"><g stroke="currentColor" stroke-linecap="round" stroke-linejoin="round" stroke-width="2"><circle cx="12" cy="12" r="10"/><path d="m9 12 2 2 4-4"/></g></symbol><symbol viewBox="0 0 24 24" id="icon-circle_question_mark" xmlns="http://www.w3.org/2000/svg"><g stroke="currentColor" stroke-linecap="round" stroke-linejoin="round" stroke-width="2"><circle cx="12" cy="12" r="10"/><path d="M9.09 9a3 3 0 0 1 5.83 1c0 2-3 3-3 3m.08 4h.01"/></g></symbol><symbol viewBox="0 0 24 24" id="icon-circle_user_round" xmlns="http://www.w3.org/2000/svg"><g stroke="currentColor" stroke-linecap="round" stroke-linejoin="round" stroke-width="2"><path d="M18 20a6 6 0 0 0-12 0"/><circle cx="12" cy="10" r="4"/><circle cx="12" cy="12" r="10"/></g></symbol><symbol viewBox="0 0 24 24" id="icon-circle_x" xmlns="http://www.w3.org/2000/svg"><g stroke="currentColor" stroke-linecap="round" stroke-linejoin="round" stroke-width="2"><circle cx="12" cy="12" r="10"/><path d="m15 9-6 6m0-6 6 6"/></g></symbol><symbol viewBox="0 0 24 24" id="icon-clipboard" xmlns="http://www.w3.org/2000/svg"><g stroke="currentColor" stroke-linecap="round" stroke-linejoin="round" stroke-width="2"><rect width="8" height="4" x="8" y="2" rx="1" ry="1"/><path d="M16 4h2a2 2 0 0 1 2 2v14a2 2 0 0 1-2 2H6a2 2 0 0 1-2-2V6a2 2 0 0 1 2-2h2"/></g></symbol><symbol viewBox="0 0 24 24" id="icon-clock" xmlns="http://www.w3.org/2000/svg"><g stroke="currentColor" stroke-linecap="round" stroke-linejoin="round" stroke-width="2"><path d="M12 6v6l4 2"/><circle cx="12" cy="12" r="10"/></g></symbol><symbol viewBox="0 0 24 24" id="icon-code" xmlns="http://www.w3.org/2000/svg"><path stroke="currentColor" stroke-linecap="round" stroke-linejoin="round" stroke-width="2" d="m16 18 6-6-6-6M8 6l-6 6 6 6"/></symbol><symbol viewBox="0 0 24 24" id="icon-ellipsis" xmlns="http://www.w3.org/2000/svg"><g stroke="currentColor" stroke-linecap="round" stroke-linejoin="round" stroke-width="2"><circle cx="12" cy="12" r="1"/><circle cx="19" cy="12" r="1"/><circle cx="5" cy="12" r="1"/></g></symbol><symbol viewBox="0 0 24 24" id="icon-eye" xmlns="http://www.w3.org/2000/svg"><g stroke="currentColor" stroke-linecap="round" stroke-linejoin="round" stroke-width="2"><path d="M2.062 12.348a1 1 0 0 1 0-.696 10.75 10.75 0 0 1 19.876 0 1 1 0 0 1 0 .696 10.75 10.75 0 0 1-19.876 0"/><circle cx="12" cy="12" r="3"/></g></symbol><symbol viewBox="0 0 24 24" id="icon-eye_off" xmlns="http://www.w3.org/2000/svg"><g stroke="currentColor" stroke-linecap="round" stroke-linejoin="round" stroke-width="2"><path d="M10.733 5.076a10.744 10.744 0 0 1 11.205 6.575 1 1 0 0 1 0 .696 10.8 10.8 0 0 1-1.444 2.49m-6.41-.679a3 3 0 0 1-4.242-4.242"/><path d="M17.479 17.499a10.75 10.75 0 0 1-15.417-5.151 1 1 0 0 1 0-.696 10.75 10.75 0 0 1 4.446-5.143M2 2l20 20"/></g></symbol><symbol viewBox="0 0 24 24" id="icon-file" xmlns="http://www.w3.org/2000/svg"><g stroke="currentColor" stroke-linecap="round" stroke-linejoin="round" stroke-width="2"><path d="M6 22a2 2 0 0 1-2-2V4a2 2 0 0 1 2-2h8a2.4 2.4 0 0 1 1.704.706l3.588 3.588A2.4 2.4 0 0 1 20 8v12a2 2 0 0 1-2 2z"/><path d="M14 2v5a1 1 0 0 0 1 1h5"/></g></symbol><symbol viewBox="0 0 24 24" id="icon-file_text" xmlns="http://www.w3.org/2000/svg"><g stroke="currentColor" stroke-linecap="round" stroke-linejoin="round" stroke-width="2"><path d="M6 22a2 2 0 0 1-2-2V4a2 2 0 0 1 2-2h8a2.4 2.4 0 0 1 1.704.706l3.588 3.588A2.4 2.4 0 0 1 20 8v12a2 2 0 0 1-2 2z"/><path d="M14 2v5a1 1 0 0 0 1 1h5M10 9H8m8 4H8m8 4H8"/></g></symbol><symbol viewBox="0 0 24 24" id="icon-folder" xmlns="http://www.w3.org/2000/svg"><path stroke="currentColor" stroke-linecap="round" stroke-linejoin="round" stroke-width="2" d="M20 20a2 2 0 0 0 2-2V8a2 2 0 0 0-2-2h-7.9a2 2 0 0 1-1.69-.9L9.6 3.9A2 2 0 0 0 7.93 3H4a2 2 0 0 0-2 2v13a2 2 0 0 0 2 2Z"/></symbol><symbol viewBox="0 0 24 24" id="icon-frown" xmlns="http://www.w3.org/2000/svg"><g stroke="currentColor" stroke-linecap="round" stroke-linejoin="round" stroke-width="2"><circle cx="12" cy="12" r="10"/><path d="M16 16s-1.5-2-4-2-4 2-4 2m1-7h.01M15 9h.01"/></g></symbol><symbol viewBox="0 0 24 24" id="icon-gear" xmlns="http://www.w3.org/2000/svg"><g stroke="currentColor" stroke-linecap="round" stroke-linejoin="round" stroke-width="2"><path d="M9.671 4.136a2.34 2.34 0 0 1 4.659 0 2.34 2.34 0 0 0 3.319 1.915 2.34 2.34 0 0 1 2.33 4.033 2.34 2.34 0 0 0 0 3.831 2.34 2.34 0 0 1-2.33 4.033 2.34 2.34 0 0 0-3.319 1.915 2.34 2.34 0 0 1-4.659 0 2.34 2.34 0 0 0-3.32-1.915 2.34 2.34 0 0 1-2.33-4.033 2.34 2.34 0 0 0 0-3.831A2.34 2.34 0 0 1 6.35 6.051a2.34 2.34 0 0 0 3.319-1.915"/><circle cx="12" cy="12" r="3"/></g></symbol><symbol viewBox="0 0 24 24" id="icon-github" xmlns="http://www.w3.org/2000/svg"><g stroke="currentColor" stroke-linecap="round" stroke-linejoin="round" stroke-width="2"><path d="M15 22v-4a4.8 4.8 0 0 0-1-3.5c3 0 6-2 6-5.5.08-1.25-.27-2.48-1-3.5.28-1.15.28-2.35 0-3.5 0 0-1 0-3 1.5-2.64-.5-5.36-.5-8 0C6 2 5 2 5 2c-.3 1.15-.3 2.35 0 3.5A5.4 5.4 0 0 0 4 9c0 3.5 3 5.5 6 5.5-.39.49-.68 1.05-.85 1.65S8.93 17.38 9 18v4"/><path d="M9 18c-4.51 2-5-2-7-2"/></g></symbol><symbol viewBox="0 0 24 24" id="icon-heart" xmlns="http://www.w3.org/2000/svg"><path stroke="currentColor" stroke-linecap="round" stroke-linejoin="round" stroke-width="2" d="M2 9.5a5.5 5.5 0 0 1 9.591-3.676.56.56 0 0 0 .818 0A5.49 5.49 0 0 1 22 9.5c0 2.29-1.5 4-3 5.5l-5.492 5.313a2 2 0 0 1-3 .019L5 15c-1.5-1.5-3-3.2-3-5.5"/></symbol><symbol viewBox="0 0 24 24" id="icon-house" xmlns="http://www.w3.org/2000/svg"><g stroke="currentColor" stroke-linecap="round" stroke-linejoin="round" stroke-width="2"><path d="M15 21v-8a1 1 0 0 0-1-1h-4a1 1 0 0 0-1 1v8"/><path d="M3 10a2 2 0 0 1 .709-1.528l7-6a2 2 0 0 1 2.582 0l7 6A2 2 0 0 1 21 10v9a2 2 0 0 1-2 2H5a2 2 0 0 1-2-2z"/></g></symbol><symbol viewBox="0 0 24 24" id="icon-inbox" xmlns="http://www.w3.org/2000/svg"><g stroke="currentColor" stroke-linecap="round" stroke-linejoin="round" stroke-width="2"><path d="M22 12h-6l-2 3h-4l-2-3H2"/><path d="M5.45 5.11 2 12v6a2 2 0 0 0 2 2h16a2 2 0 0 0 2-2v-6l-3.45-6.89A2 2 0 0 0 16.76 4H7.24a2 2 0 0 0-1.79 1.11"/></g></symbol><symbol viewBox="0 0 24 24" id="icon-info" xmlns="http://www.w3.org/2000/svg"><g stroke="currentColor" stroke-linecap="round" stroke-linejoin="round" stroke-width="2"><circle cx="12" cy="12" r="10"/><path d="M12 16v-4m0-4h.01"/></g></symbol><symbol viewBox="0 0 24 24" id="icon-laugh" xmlns="http://www.w3.org/2000/svg"><g stroke="currentColor" stroke-linecap="round" stroke-linejoin="round" stroke-width="2"><circle cx="12" cy="12" r="10"/><path d="M18 13a6 6 0 0 1-6 5 6 6 0 0 1-6-5zM9 9h.01M15 9h.01"/></g></symbol><symbol viewBox="0 0 24 24" id="icon-life-buoy" xmlns="http://www.w3.org/2000/svg"><g stroke="currentColor" stroke-linecap="round" stroke-linejoin="round" stroke-width="2"><circle cx="12" cy="12" r="10"/><path d="m4.93 4.93 4.24 4.24m5.66 0 4.24-4.24m-4.24 9.9 4.24 4.24m-9.9-4.24-4.24 4.24"/><circle cx="12" cy="12" r="4"/></g></symbol><symbol viewBox="0 0 24 24" id="icon-lock_keyhole" xmlns="http://www.w3.org/2000/svg"><g stroke="currentColor" stroke-linecap="round" stroke-linejoin="round" stroke-width="2"><circle cx="12" cy="16" r="1"/><rect width="18" height="12" x="3" y="10" rx="2"/><path d="M7 10V7a5 5 0 0 1 10 0v3"/></g></symbol><symbol viewBox="0 0 24 24" id="icon-lock_keyhole_open" xmlns="http://www.w3.org/2000/svg"><g stroke="currentColor" stroke-linecap="round" stroke-linejoin="round" stroke-width="2"><circle cx="12" cy="16" r="1"/><rect width="18" height="12" x="3" y="10" rx="2"/><path d="M7 10V7a5 5 0 0 1 9.33-2.5"/></g></symbol><symbol viewBox="0 0 24 24" id="icon-logout" xmlns="http://www.w3.org/2000/svg"><path stroke="currentColor" stroke-linecap="round" stroke-linejoin="round" stroke-width="2" d="m16 17 5-5-5-5m5 5H9m0 9H5a2 2 0 0 1-2-2V5a2 2 0 0 1 2-2h4"/></symbol><symbol viewBox="0 0 24 24" id="icon-mail" xmlns="http://www.w3.org/2000/svg"><g stroke="currentColor" stroke-linecap="round" stroke-linejoin="round" stroke-width="2"><path d="m22 7-8.991 5.727a2 2 0 0 1-2.009 0L2 7"/><rect width="20" height="16" x="2" y="4" rx="2"/></g></symbol><symbol viewBox="0 0 24 24" id="icon-meh" xmlns="http://www.w3.org/2000/svg"><g stroke="currentColor" stroke-linecap="round" stroke-linejoin="round" stroke-width="2"><circle cx="12" cy="12" r="10"/><path d="M8 15h8M9 9h.01M15 9h.01"/></g></symbol><symbol viewBox="0 0 24 24" id="icon-message_circle" xmlns="http://www.w3.org/2000/svg"><path stroke="currentColor" stroke-linecap="round" stroke-linejoin="round" stroke-width="2" d="M2.992 16.342a2 2 0 0 1 .094 1.167l-1.065 3.29a1 1 0 0 0 1.236 1.168l3.413-.998a2 2 0 0 1 1.099.092 10 10 0 1 0-4.777-4.719"/></symbol><symbol viewBox="0 0 24 24" id="icon-message_square" xmlns="http://www.w3.org/2000/svg"><path stroke="currentColor" stroke-linecap="round" stroke-linejoin="round" stroke-width="2" d="M22 17a2 2 0 0 1-2 2H6.828a2 2 0 0 0-1.414.586l-2.202 2.202A.71.71 0 0 1 2 21.286V5a2 2 0 0 1 2-2h16a2 2 0 0 1 2 2z"/></symbol><symbol viewBox="0 0 24 24" id="icon-minus" xmlns="http://www.w3.org/2000/svg"><path stroke="currentColor" stroke-linecap="round" stroke-linejoin="round" stroke-width="2" d="M5 12h14"/></symbol><symbol viewBox="0 0 24 24" id="icon-panel_left" xmlns="http://www.w3.org/2000/svg"><g stroke="currentColor" stroke-linecap="round" stroke-linejoin="round" stroke-width="2"><rect width="18" height="18" x="3" y="3" rx="2"/><path d="M9 3v18"/></g></symbol><symbol viewBox="0 0 24 24" id="icon-search" xmlns="http://www.w3.org/2000/svg"><g stroke="currentColor" stroke-linecap="round" stroke-linejoin="round" stroke-width="2"><path d="m21 21-4.34-4.34"/><circle cx="11" cy="11" r="8"/></g></symbol><symbol viewBox="0 0 24 24" id="icon-send" xmlns="http://www.w3.org/2000/svg"><path stroke="currentColor" stroke-linecap="round" stroke-linejoin="round" stroke-width="2" d="M14.536 21.686a.5.5 0 0 0 .937-.024l6.5-19a.496.496 0 0 0-.635-.635l-19 6.5a.5.5 0 0 0-.024.937l7.93 3.18a2 2 0 0 1 1.112 1.11zm7.318-19.539-10.94 10.939"/></symbol><symbol viewBox="0 0 24 24" id="icon-send-horizontal" xmlns="http://www.w3.org/2000/svg"><path stroke="currentColor" stroke-linecap="round" stroke-linejoin="round" stroke-width="2" d="M3.714 3.048a.498.498 0 0 0-.683.627l2.843 7.627a2 2 0 0 1 0 1.396l-2.842 7.627a.498.498 0 0 0 .682.627l18-8.5a.5.5 0 0 0 0-.904zM6 12h16"/></symbol><symbol viewBox="0 0 24 24" id="icon-smile" xmlns="http://www.w3.org/2000/svg"><g stroke="currentColor" stroke-linecap="round" stroke-linejoin="round" stroke-width="2"><circle cx="12" cy="12" r="10"/><path d="M8 14s1.5 2 4 2 4-2 4-2M9 9h.01M15 9h.01"/></g></symbol><symbol viewBox="0 0 24 24" id="icon-star" xmlns="http://www.w3.org/2000/svg"><path stroke="currentColor" stroke-linecap="round" stroke-linejoin="round" stroke-width="2" d="M11.525 2.295a.53.53 0 0 1 .95 0l2.31 4.679a2.12 2.12 0 0 0 1.595 1.16l5.166.756a.53.53 0 0 1 .294.904l-3.736 3.638a2.12 2.12 0 0 0-.611 1.878l.882 5.14a.53.53 0 0 1-.771.56l-4.618-2.428a2.12 2.12 0 0 0-1.973 0L6.396 21.01a.53.53 0 0 1-.77-.56l.881-5.139a2.12 2.12 0 0 0-.611-1.879L2.16 9.795a.53.53 0 0 1 .294-.906l5.165-.755a2.12 2.12 0 0 0 1.597-1.16z"/></symbol><symbol viewBox="0 0 24 24" id="icon-triangle_alert" xmlns="http://www.w3.org/2000/svg"><path stroke="currentColor" stroke-linecap="round" stroke-linejoin="round" stroke-width="2" d="m21.73 18-8-14a2 2 0 0 0-3.48 0l-8 14A2 2 0 0 0 4 21h16a2 2 0 0 0 1.73-3M12 9v4m0 4h.01"/></symbol><symbol viewBox="0 0 24 24" id="icon-user_round_check" xmlns="http://www.w3.org/2000/svg"><g stroke="currentColor" stroke-linecap="round" stroke-linejoin="round" stroke-width="2"><path d="M2 21a8 8 0 0 1 13.292-6"/><circle cx="10" cy="8" r="5"/><path d="m16 19 2 2 4-4"/></g></symbol><symbol viewBox="0 0 24 24" id="icon-user_round_plus" xmlns="http://www.w3.org/2000/svg"><g stroke="currentColor" stroke-linecap="round" stroke-linejoin="round" stroke-width="2"><path d="M2 21a8 8 0 0 1 13.292-6"/><circle cx="10" cy="8" r="5"/><path d="M19 16v6m3-3h-6"/></g></symbol><symbol viewBox="0 0 24 24" id="icon-user_round_x" xmlns="http://www.w3.org/2000/svg"><g stroke="currentColor" stroke-linecap="round" stroke-linejoin="round" stroke-width="2"><path d="M2 21a8 8 0 0 1 11.873-7"/><circle cx="10" cy="8" r="5"/><path d="m17 17 5 5m0-5-5 5"/></g></symbol><symbol viewBox="0 0 24 24" id="icon-users" xmlns="http://www.w3.org/2000/svg"><g stroke="currentColor" stroke-linecap="round" stroke-linejoin="round" stroke-width="2"><path d="M16 21v-2a4 4 0 0 0-4-4H6a4 4 0 0 0-4 4v2M16 3.128a4 4 0 0 1 0 7.744M22 21v-2a4 4 0 0 0-3-3.87"/><circle cx="9" cy="7" r="4"/></g></symbol><symbol viewBox="0 0 24 24" id="icon-x" xmlns="http://www.w3.org/2000/svg"><path stroke="currentColor" stroke-linecap="round" stroke-linejoin="round" stroke-width="2" d="M18 6 6 18M6 6l12 12"/></symbol></svg>