<?xml version="1.0" encoding="utf-8"?><svg xmlns="http://www.w3.org/2000/svg" xmlns:xlink="http://www.w3.org/1999/xlink"><symbol viewBox="0 0 24 24" id="icon-add_outline_24" xmlns="http://www.w3.org/2000/svg"><path d="M12 3a.9.9 0 0 1 .9.9v7.2h7.2a.9.9 0 0 1 0 1.8l-7.2-.001V20.1a.9.9 0 1 1-1.8 0V12.9l-7.2.001a.9.9 0 0 1 0-1.8h7.2V3.9A.9.9 0 0 1 12 3Z"/></symbol><symbol viewBox="0 0 24 24" id="icon-arrow_down_outline_24" xmlns="http://www.w3.org/2000/svg"><path d="M19.74 12.468a.9.9 0 0 0-1.18-.089l-.092.08L12.9 17.95V3.9a.9.9 0 0 0-1.793-.113L11.1 3.9v14.05l-5.568-5.49a.9.9 0 0 0-1.181-.073l-.092.081a.9.9 0 0 0-.072 1.181l.081.092 7.1 7a.9.9 0 0 0 1.172.08l.092-.08 7.1-7a.9.9 0 0 0 .009-1.273Z"/></symbol><symbol stroke="currentColor" stroke-width="2" stroke-linecap="round" stroke-linejoin="round" viewBox="0 0 24 24" id="icon-arrows_collapse_outline_24" xmlns="http://www.w3.org/2000/svg"><path d="m7 15 5 5 5-5M7 9l5-5 5 5"/></symbol><symbol viewBox="0 0 24 24" id="icon-cancel_outline_24" xmlns="http://www.w3.org/2000/svg"><path d="M5.264 5.264a.9.9 0 0 1 1.272 0L12 10.727l5.464-5.463a.9.9 0 0 1 1.272 1.272L13.273 12l5.463 5.464a.9.9 0 1 1-1.272 1.272L12 13.273l-5.464 5.463a.9.9 0 1 1-1.272-1.272L10.727 12 5.264 6.536a.9.9 0 0 1 0-1.272Z"/></symbol><symbol viewBox="0 0 24 24" id="icon-chain_outline_24" xmlns="http://www.w3.org/2000/svg"><path fill-rule="evenodd" clip-rule="evenodd" d="M13.49 4.293a4.402 4.402 0 0 1 6.225 6.225l-1.072 1.072a.9.9 0 0 1-1.273-1.274l1.071-1.071a2.601 2.601 0 1 0-3.678-3.679l-3.537 3.537a2.601 2.601 0 0 0 0 3.679.9.9 0 1 1-1.274 1.273 4.402 4.402 0 0 1 0-6.225l3.537-3.537Zm-.708 5.66a.9.9 0 0 1 1.273 0 4.402 4.402 0 0 1 0 6.224l-3.537 3.538a4.402 4.402 0 0 1-6.225-6.226l1.122-1.122a.9.9 0 0 1 1.273 1.274l-1.122 1.122a2.601 2.601 0 1 0 3.679 3.678l3.537-3.537a2.601 2.601 0 0 0 0-3.678.9.9 0 0 1 0-1.274Z"/></symbol><symbol viewBox="0 0 24 24" id="icon-check_circle_outline_24" xmlns="http://www.w3.org/2000/svg"><path d="M14.964 9.264a.9.9 0 0 1 1.272 1.272l-4.6 4.6a.9.9 0 0 1-1.272 0l-2.6-2.6a.9.9 0 0 1 1.272-1.272L11 13.227l3.964-3.963Z"/><path fill-rule="evenodd" clip-rule="evenodd" d="M12 2.1c5.467 0 9.9 4.433 9.9 9.9 0 5.467-4.433 9.9-9.9 9.9-5.467 0-9.9-4.433-9.9-9.9 0-5.467 4.433-9.9 9.9-9.9Zm0 1.8A8.1 8.1 0 0 0 3.9 12a8.1 8.1 0 0 0 8.1 8.1 8.1 8.1 0 0 0 8.1-8.1A8.1 8.1 0 0 0 12 3.9Z"/></symbol><symbol viewBox="0 0 24 24" id="icon-chevron_down_small_24" xmlns="http://www.w3.org/2000/svg"><path fill-rule="evenodd" clip-rule="evenodd" d="M17.736 9.264a.9.9 0 0 0-1.272 0L12 13.727 7.536 9.264a.9.9 0 0 0-1.272 1.272l5.1 5.1a.9.9 0 0 0 1.272 0l5.1-5.1a.9.9 0 0 0 0-1.272Z"/></symbol><symbol viewBox="0 0 24 24" id="icon-chevron_left_small_24" xmlns="http://www.w3.org/2000/svg"><path fill-rule="evenodd" clip-rule="evenodd" d="M14.736 17.736a.9.9 0 0 0 0-1.272L10.273 12l4.463-4.464a.9.9 0 1 0-1.272-1.272l-5.1 5.1a.9.9 0 0 0 0 1.272l5.1 5.1a.9.9 0 0 0 1.272 0Z"/></symbol><symbol viewBox="0 0 24 24" id="icon-chevron_right_small_24" xmlns="http://www.w3.org/2000/svg"><path fill-rule="evenodd" clip-rule="evenodd" d="M9.264 6.264a.9.9 0 0 0 0 1.272L13.727 12l-4.463 4.464a.9.9 0 0 0 1.272 1.272l5.1-5.1a.9.9 0 0 0 0-1.272l-5.1-5.1a.9.9 0 0 0-1.272 0Z"/></symbol><symbol viewBox="0 0 24 24" id="icon-chevron_up_small_24" xmlns="http://www.w3.org/2000/svg"><path fill-rule="evenodd" clip-rule="evenodd" d="M17.736 14.736a.9.9 0 0 1-1.272 0L12 10.273l-4.464 4.463a.9.9 0 1 1-1.272-1.272l5.1-5.1a.9.9 0 0 1 1.272 0l5.1 5.1a.9.9 0 0 1 0 1.272Z"/></symbol><symbol viewBox="0 0 24 24" id="icon-clock_outline_24" xmlns="http://www.w3.org/2000/svg"><path d="M12.4 8a.9.9 0 1 0-1.8 0v4.5a.9.9 0 0 0 .584.843l4 1.5a.9.9 0 0 0 .632-1.686l-3.416-1.28V8Z"/><path fill-rule="evenodd" clip-rule="evenodd" d="M12 2.1c-5.468 0-9.9 4.432-9.9 9.9s4.432 9.9 9.9 9.9 9.9-4.432 9.9-9.9-4.432-9.9-9.9-9.9ZM3.9 12a8.1 8.1 0 1 1 16.2 0 8.1 8.1 0 0 1-16.2 0Z"/></symbol><symbol viewBox="0 0 24 24" id="icon-computer_outline_24" xmlns="http://www.w3.org/2000/svg"><path fill-rule="evenodd" clip-rule="evenodd" d="M3.1 10.5c0-2.24 0-3.36.436-4.216a4 4 0 0 1 1.748-1.748C6.14 4.1 7.26 4.1 9.5 4.1h5c2.24 0 3.36 0 4.216.436a4 4 0 0 1 1.748 1.748c.436.856.436 1.976.436 4.216s0 3.36-.436 4.216a4 4 0 0 1-1.748 1.748c-.836.426-1.924.436-4.063.436l.55 2.2H17.1a.9.9 0 1 1 0 1.8H6.9a.9.9 0 1 1 0-1.8h1.897l.55-2.2c-2.139 0-3.227-.01-4.063-.436a4 4 0 0 1-1.748-1.748C3.1 13.86 3.1 12.74 3.1 10.5Zm11.4-4.6h-5c-1.15 0-1.904.001-2.48.048-.556.046-.787.125-.919.192a2.2 2.2 0 0 0-.961.961c-.067.132-.146.363-.191.918C4.9 8.596 4.9 9.35 4.9 10.5s.001 1.904.049 2.48c.045.556.124.787.19.919.212.414.548.75.962.961.132.067.363.146.918.192.577.047 1.331.048 2.481.048h5c1.15 0 1.904-.001 2.48-.048.556-.046.787-.125.919-.192a2.2 2.2 0 0 0 .961-.961c.067-.132.146-.363.192-.918.047-.577.048-1.331.048-2.481s-.001-1.904-.049-2.48c-.045-.556-.124-.787-.19-.919a2.2 2.2 0 0 0-.962-.961c-.132-.067-.363-.146-.918-.192-.577-.047-1.331-.048-2.481-.048Zm-3.297 11-.55 2.2h2.694l-.55-2.2h-1.594Z"/></symbol><symbol viewBox="0 0 24 24" id="icon-copy_outline_24" xmlns="http://www.w3.org/2000/svg"><path fill-rule="evenodd" clip-rule="evenodd" d="M4 12.3V12c0-1.47.005-2.547.075-3.403.074-.904.216-1.482.454-1.949a4.85 4.85 0 0 1 2.12-2.12c.466-.237 1.044-.379 1.948-.453C9.51 4.001 10.675 4 12.3 4H16.812a2.073 2.073 0 0 0-.174-.49 2.4 2.4 0 0 0-1.048-1.048 2.439 2.439 0 0 0-.931-.239 13.48 13.48 0 0 0-1.026-.023H12.26c-1.576 0-2.814 0-3.81.081-1.014.083-1.856.255-2.62.644A6.65 6.65 0 0 0 2.926 5.83c-.389.763-.56 1.605-.644 2.62-.081.995-.081 2.233-.081 3.809v1.373c0 .392 0 .738.023 1.025.025.306.081.623.239.931a2.4 2.4 0 0 0 1.048 1.05c.162.082.326.136.49.173V12.3ZM10.08 6h-.035c-.52 0-.964 0-1.329.03-.383.03-.755.097-1.112.276a2.9 2.9 0 0 0-1.298 1.298c-.179.357-.246.73-.277 1.112C6 9.081 6 9.524 6 10.046v7.909c0 .52 0 .964.03 1.329.03.382.097.755.276 1.112a2.9 2.9 0 0 0 1.298 1.298c.357.179.73.246 1.112.277.365.029.808.029 1.329.029h6.91c.52 0 .964 0 1.329-.03.382-.03.755-.097 1.112-.276a2.9 2.9 0 0 0 1.298-1.298c.179-.357.246-.73.277-1.112.029-.365.029-.808.029-1.33v-7.909c0-.52 0-.964-.03-1.329-.03-.382-.097-.755-.276-1.112a2.9 2.9 0 0 0-1.298-1.298c-.357-.179-.73-.246-1.112-.277C17.919 6 17.476 6 16.954 6H10.08ZM8.408 7.916c.065-.032.179-.07.452-.093.284-.022.655-.023 1.22-.023h6.84c.565 0 .936 0 1.22.023.273.022.387.06.452.093a1.1 1.1 0 0 1 .492.492c.032.065.07.179.093.452.022.284.023.655.023 1.22v7.84c0 .565 0 .936-.023 1.22-.023.273-.06.387-.093.452a1.1 1.1 0 0 1-.492.492c-.065.032-.18.07-.452.093-.284.022-.655.023-1.22.023h-6.84c-.565 0-.936 0-1.22-.023-.273-.023-.387-.06-.452-.093a1.1 1.1 0 0 1-.492-.492c-.032-.065-.07-.18-.093-.452a17.057 17.057 0 0 1-.023-1.22v-7.84c0-.565 0-.936.023-1.22.022-.273.06-.387.093-.452a1.1 1.1 0 0 1 .492-.492Z"/></symbol><symbol viewBox="0 0 24 24" id="icon-delete_outline_24" xmlns="http://www.w3.org/2000/svg"><path fill-rule="evenodd" clip-rule="evenodd" d="M14.556 8.102a.9.9 0 0 1 .842.954l-.5 8a.9.9 0 1 1-1.796-.112l.5-8a.9.9 0 0 1 .954-.842ZM9.444 8.102a.9.9 0 0 0-.842.954l.5 8a.9.9 0 1 0 1.796-.112l-.5-8a.9.9 0 0 0-.954-.842Z"/><path fill-rule="evenodd" clip-rule="evenodd" d="M3 4.1a.9.9 0 1 0 0 1.8h1.18l1.155 12.316c.045.484.084.898.143 1.237.062.359.157.704.35 1.03a2.9 2.9 0 0 0 1.25 1.137c.342.162.695.225 1.057.253.344.027.76.027 1.246.027h5.238c.486 0 .902 0 1.246-.027.362-.028.715-.09 1.057-.253a2.9 2.9 0 0 0 1.249-1.137c.194-.326.289-.671.35-1.03.06-.34.099-.753.144-1.237L19.82 5.9H21a.9.9 0 0 0 0-1.8h-5.204a3.902 3.902 0 0 0-7.592 0H3Zm4.124 13.915c.05.526.082.87.128 1.13.043.252.087.356.124.417a1.1 1.1 0 0 0 .474.432c.064.03.172.065.426.085.265.02.61.021 1.138.021h5.172c.528 0 .873 0 1.138-.021.254-.02.362-.055.426-.085a1.1 1.1 0 0 0 .474-.432c.037-.06.08-.166.124-.416.046-.262.079-.605.128-1.131L18.012 5.9H5.988l1.136 12.115ZM12 2.9a2.1 2.1 0 0 0-1.898 1.2h3.796A2.1 2.1 0 0 0 12 2.9Z"/></symbol><symbol viewBox="0 0 24 24" id="icon-document_outline_24" xmlns="http://www.w3.org/2000/svg"><path fill-rule="evenodd" clip-rule="evenodd" d="M12.473 2c.3 0 .586 0 .866.066a2.4 2.4 0 0 1 .694.288c.245.15.447.353.659.565l4.389 4.39c.212.21.415.413.565.658a2.4 2.4 0 0 1 .288.694c.067.28.066.566.066.866v6.012c0 .947 0 1.713-.05 2.333-.053.64-.163 1.203-.43 1.726a4.4 4.4 0 0 1-1.922 1.922c-.523.267-1.087.377-1.726.43-.62.05-1.386.05-2.334.05h-3.076c-.948 0-1.714 0-2.334-.05-.64-.053-1.203-.163-1.726-.43a4.4 4.4 0 0 1-1.922-1.922c-.267-.523-.377-1.087-.43-1.726C4 17.252 4 16.486 4 15.538V8.462c0-.948 0-1.714.05-2.334.053-.64.163-1.203.43-1.726A4.4 4.4 0 0 1 6.402 2.48c.523-.267 1.087-.377 1.726-.43C8.748 2 9.514 2 10.462 2h2.011ZM10.5 3.8H12v2.135c0 .53 0 .981.03 1.352.032.39.102.768.286 1.13a2.9 2.9 0 0 0 1.267 1.267c.362.184.741.254 1.13.286.37.03.822.03 1.352.03H18.2v5.5c0 .995 0 1.687-.045 2.226-.043.527-.123.828-.238 1.054a2.6 2.6 0 0 1-1.137 1.137c-.226.115-.527.195-1.055.238-.538.044-1.23.045-2.225.045h-3c-.995 0-1.687 0-2.226-.045-.527-.043-.828-.123-1.054-.238a2.6 2.6 0 0 1-1.137-1.137c-.115-.226-.195-.527-.238-1.055-.044-.538-.045-1.23-.045-2.225v-7c0-.995 0-1.687.045-2.225.043-.528.123-.829.238-1.055A2.6 2.6 0 0 1 7.22 4.083c.226-.115.527-.195 1.054-.238C8.813 3.8 9.505 3.8 10.5 3.8Zm3.3.773L17.427 8.2H16.1c-.575 0-.952 0-1.24-.024-.278-.023-.393-.062-.46-.096a1.1 1.1 0 0 1-.48-.48c-.034-.066-.073-.182-.096-.46-.023-.288-.024-.665-.024-1.24V4.573Z"/></symbol><symbol viewBox="0 0 24 24" id="icon-document_plus_outline_24" xmlns="http://www.w3.org/2000/svg"><path fill-rule="evenodd" clip-rule="evenodd" d="M12.473 2c.3 0 .586 0 .866.066a2.4 2.4 0 0 1 .694.288c.245.15.447.353.659.565l4.389 4.39c.212.21.415.413.565.658a2.4 2.4 0 0 1 .288.694c.067.28.066.566.066.866v3.57a.9.9 0 1 1-1.8 0V10h-2.135c-.53 0-.982 0-1.352-.03-.389-.032-.768-.102-1.13-.286a2.9 2.9 0 0 1-1.267-1.267c-.184-.362-.254-.74-.286-1.13-.03-.37-.03-.822-.03-1.352V3.8h-1.5c-.995 0-1.687 0-2.226.045-.527.043-.828.123-1.054.238A2.6 2.6 0 0 0 6.083 5.22c-.115.226-.195.527-.238 1.055C5.8 6.813 5.8 7.505 5.8 8.5v7c0 .995 0 1.687.045 2.226.043.527.123.828.238 1.054a2.6 2.6 0 0 0 1.137 1.137c.226.115.527.195 1.054.238.539.044 1.231.045 2.226.045h.6a.9.9 0 0 1 0 1.8h-.638c-.948 0-1.714 0-2.334-.05-.64-.053-1.203-.163-1.726-.43a4.4 4.4 0 0 1-1.922-1.922c-.267-.523-.377-1.087-.43-1.726C4 17.252 4 16.486 4 15.538V8.462c0-.948 0-1.714.05-2.334.053-.64.163-1.203.43-1.726A4.4 4.4 0 0 1 6.402 2.48c.523-.267 1.087-.377 1.726-.43C8.748 2 9.514 2 10.462 2h2.011Zm3.14 4.386L17.428 8.2H16.1c-.575 0-.952 0-1.24-.024-.278-.023-.393-.062-.46-.096a1.1 1.1 0 0 1-.48-.48c-.034-.066-.073-.182-.096-.46-.023-.288-.024-.665-.024-1.24V4.573l1.814 1.813Zm2.291 9.518a.9.9 0 0 0-1.8 0v2.2h-2.2a.9.9 0 1 0 0 1.8h2.2v2.2a.9.9 0 0 0 1.8 0v-2.2h2.2a.9.9 0 0 0 0-1.8h-2.2v-2.2Z"/></symbol><symbol viewBox="0 0 24 24" id="icon-dollar_outline_24" xmlns="http://www.w3.org/2000/svg"><path fill-rule="evenodd" clip-rule="evenodd" d="M12.9 2.899a.9.9 0 0 0-1.8 0v1.109c-1.24.115-2.358.468-3.235 1.033-1.093.704-1.863 1.781-1.863 3.117 0 .756.106 1.863 1.025 2.836.793.84 2.08 1.462 4.073 1.79v5.406c-2.017-.2-2.96-1.064-3.452-1.792a.9.9 0 1 0-1.49 1.009c.822 1.216 2.3 2.375 4.942 2.59v1.105a.9.9 0 0 0 1.8 0v-1.11c1.24-.115 2.358-.469 3.235-1.033 1.093-.704 1.863-1.78 1.863-3.116 0-.757-.106-1.864-1.025-2.837-.793-.84-2.08-1.461-4.073-1.79v-5.4c1.98.226 2.961 1.18 3.494 1.84a.9.9 0 1 0 1.4-1.13c-.776-.963-2.213-2.276-4.894-2.52V2.9Zm-1.8 2.918c-.93.107-1.702.378-2.26.738-.724.465-1.038 1.034-1.038 1.603 0 .582.084 1.123.534 1.6.399.423 1.185.9 2.764 1.198V5.817Zm1.8 7.227v5.138c.93-.107 1.702-.377 2.26-.737.724-.465 1.038-1.033 1.038-1.602 0-.583-.084-1.124-.534-1.601-.398-.422-1.185-.9-2.764-1.198Z"/></symbol><symbol viewBox="0 0 24 24" id="icon-done_outline_24" xmlns="http://www.w3.org/2000/svg"><path fill-rule="evenodd" clip-rule="evenodd" d="M20.736 5.664a.9.9 0 0 1 0 1.272l-11.1 11.1a.9.9 0 0 1-1.272 0l-5.1-5.1a.9.9 0 0 1 1.272-1.272L9 16.127 19.464 5.664a.9.9 0 0 1 1.272 0Z"/></symbol><symbol viewBox="0 0 24 24" id="icon-error_circle_outline_24" xmlns="http://www.w3.org/2000/svg"><path fill-rule="evenodd" clip-rule="evenodd" d="M4.929 4.929A9.971 9.971 0 0 1 12 2a9.972 9.972 0 0 1 7.071 2.929A9.972 9.972 0 0 1 22 12a9.972 9.972 0 0 1-2.929 7.071A9.972 9.972 0 0 1 12 22a9.972 9.972 0 0 1-7.071-2.929A9.972 9.972 0 0 1 2 12a9.972 9.972 0 0 1 2.929-7.071ZM12 3.8a8.172 8.172 0 0 0-5.798 2.402A8.172 8.172 0 0 0 3.8 12c0 2.265.917 4.313 2.402 5.798A8.171 8.171 0 0 0 12 20.2a8.172 8.172 0 0 0 5.798-2.402A8.172 8.172 0 0 0 20.2 12a8.171 8.171 0 0 0-2.402-5.798A8.172 8.172 0 0 0 12 3.8Z"/><path d="M13 16a1 1 0 1 1-2 0 1 1 0 0 1 2 0Z"/><path fill-rule="evenodd" clip-rule="evenodd" d="M12 7a.9.9 0 0 1 .9.9v5.2a.9.9 0 0 1-1.8 0V7.9A.9.9 0 0 1 12 7Z"/></symbol><symbol viewBox="0 0 24 24" id="icon-euro_outline_24" xmlns="http://www.w3.org/2000/svg"><path d="M6.37 9.201a7.27 7.27 0 0 1 6.696-4.397c2.13 0 4.043.906 5.373 2.351a.9.9 0 0 0 1.325-1.218 9.077 9.077 0 0 0-6.698-2.933A9.067 9.067 0 0 0 4.446 9.2H2.899a.9.9 0 0 0 0 1.8h1.156a9.04 9.04 0 0 0 0 2.003H2.898a.9.9 0 1 0 0 1.8h1.547a9.067 9.067 0 0 0 8.621 6.201c2.652 0 5.04-1.13 6.698-2.933a.9.9 0 0 0-1.325-1.218 7.277 7.277 0 0 1-5.373 2.351 7.27 7.27 0 0 1-6.698-4.401h6.742a.9.9 0 1 0 0-1.8H5.868a7.193 7.193 0 0 1 0-2.003h7.242a.9.9 0 1 0 0-1.8H6.37Z"/></symbol><symbol viewBox="0 0 24 24" id="icon-favorite_outline_24" xmlns="http://www.w3.org/2000/svg"><path fill-rule="evenodd" clip-rule="evenodd" d="M12.554 4.694a.6.6 0 0 0-1.109 0l-1.613 3.9a.9.9 0 0 1-.774.554l-4.125.266a.6.6 0 0 0-.357 1.05l3.267 2.859a.9.9 0 0 1 .282.888l-.93 3.852a.6.6 0 0 0 .883.66l3.472-2.003a.9.9 0 0 1 .9 0l3.472 2.004a.6.6 0 0 0 .883-.661l-.93-3.852a.9.9 0 0 1 .282-.888l3.267-2.858a.6.6 0 0 0-.357-1.05l-4.125-.267a.9.9 0 0 1-.774-.554l-1.614-3.9Zm-2.772-.689c.818-1.976 3.618-1.976 4.436 0l1.4 3.383 3.565.23c2.136.138 3.037 2.792 1.426 4.201l-2.856 2.5.802 3.322c.494 2.05-1.706 3.696-3.533 2.642L12 18.539l-3.022 1.744C7.15 21.337 4.95 19.69 5.445 17.64l.802-3.322-2.856-2.5c-1.611-1.41-.71-4.063 1.426-4.201l3.566-.23 1.4-3.383Z"/></symbol><symbol viewBox="0 0 24 24" id="icon-folder_simple_arrow_right_24" xmlns="http://www.w3.org/2000/svg"><path fill-rule="evenodd" clip-rule="evenodd" d="M7.611 4.8c.356 0 .406.004.446.013a.6.6 0 0 1 .173.065c.035.02.076.05.343.285l1.153 1.014.045.04c.206.182.403.356.633.483a2.4 2.4 0 0 0 .646.244c.258.057.52.056.794.056H16.3c.855 0 1.442 0 1.897.038.445.036.684.103.856.19a2.1 2.1 0 0 1 .918.919c.088.172.155.411.191.856.037.455.038 1.042.038 1.897v3.4c0 .855 0 1.442-.038 1.897-.036.445-.103.684-.19.856a2.1 2.1 0 0 1-.919.918c-.172.088-.411.155-.856.191-.455.037-1.042.038-1.897.038h-1.997a.9.9 0 0 0 0 1.8h2.035c.808 0 1.469 0 2.006-.044.556-.045 1.058-.142 1.526-.381a3.9 3.9 0 0 0 1.705-1.704c.239-.47.336-.971.381-1.527.044-.537.044-1.198.044-2.006v-3.476c0-.808 0-1.469-.044-2.006-.045-.556-.142-1.058-.381-1.527a3.9 3.9 0 0 0-1.704-1.704c-.47-.239-.971-.336-1.527-.381-.537-.044-1.198-.044-2.006-.044h-4.432c-.374 0-.427-.005-.469-.014a.6.6 0 0 1-.161-.061c-.038-.02-.08-.052-.361-.299L9.762 3.812l-.044-.039c-.195-.172-.382-.337-.6-.46a2.4 2.4 0 0 0-.694-.262C8.18 2.999 7.93 3 7.67 3h-.094c-.767 0-1.395 0-1.907.04-.528.04-1.007.128-1.457.345A3.9 3.9 0 0 0 2.385 5.21c-.217.45-.304.929-.345 1.457C2 7.18 2 7.808 2 8.575v5.328a.9.9 0 1 0 1.8 0V8.61c0-.812 0-1.37.034-1.803.033-.423.094-.652.173-.818a2.1 2.1 0 0 1 .983-.983c.166-.08.395-.14.818-.173.433-.033.99-.034 1.803-.034Zm-4.71 11.8a.9.9 0 1 0 0 1.8h6.022l-1.659 1.66a.9.9 0 0 0 1.273 1.272l3.196-3.196a.9.9 0 0 0 0-1.272l-3.191-3.2a.9.9 0 0 0-1.274 1.271l1.66 1.665H2.9Z"/></symbol><symbol viewBox="0 0 24 24" id="icon-folder_simple_arrow_up_outline_24" xmlns="http://www.w3.org/2000/svg"><path fill-rule="evenodd" clip-rule="evenodd" d="M7.613 4.8c.355 0 .405.004.445.013a.6.6 0 0 1 .173.065c.036.02.076.05.343.285l1.153 1.014.046.04c.206.182.403.356.634.483.202.112.42.194.646.244.257.057.52.056.794.056h4.457c.855 0 1.442 0 1.897.038.445.036.684.103.857.19a2.1 2.1 0 0 1 .918.919c.03.06.093.28.144.69.045.371.07.797.081 1.187a.9.9 0 0 0 1.8-.053 15.08 15.08 0 0 0-.094-1.354c-.05-.41-.138-.917-.327-1.288a3.9 3.9 0 0 0-1.705-1.704c-.469-.239-.971-.336-1.527-.381C17.81 5.2 17.15 5.2 16.34 5.2h-4.433c-.374 0-.427-.005-.468-.014a.6.6 0 0 1-.162-.061c-.037-.02-.08-.052-.361-.299L9.764 3.812l-.044-.039c-.195-.172-.382-.337-.6-.46a2.401 2.401 0 0 0-.694-.262C8.181 2.999 7.931 3 7.671 3h-.094c-.768 0-1.396 0-1.908.04-.529.04-1.007.128-1.458.345A3.9 3.9 0 0 0 2.385 5.21c-.217.45-.304.929-.345 1.457C2 7.18 2 7.808 2 8.575v5.763c0 .808 0 1.469.044 2.006.045.556.142 1.058.381 1.526a3.9 3.9 0 0 0 1.705 1.705c.469.239.971.336 1.527.381C6.194 20 6.855 20 7.664 20h6.434a.9.9 0 1 0 0-1.8H7.701c-.855 0-1.442 0-1.897-.038-.445-.036-.684-.103-.857-.19a2.1 2.1 0 0 1-.918-.919c-.088-.172-.154-.411-.19-.856C3.8 15.742 3.8 15.155 3.8 14.3V8.611c0-.812.001-1.37.035-1.803.033-.423.093-.652.173-.818a2.1 2.1 0 0 1 .983-.983c.166-.08.394-.14.818-.173.433-.033.991-.034 1.804-.034ZM18.1 20.101a.9.9 0 0 0 1.8 0v-5.024l1.562 1.563a.9.9 0 0 0 1.274-1.272l-3.099-3.102a.9.9 0 0 0-1.274 0l-3.098 3.102a.9.9 0 1 0 1.274 1.272l1.561-1.563v5.024Z"/></symbol><symbol viewBox="0 0 24 24" id="icon-folder_simple_lock_outline_24" xmlns="http://www.w3.org/2000/svg"><path fill-rule="evenodd" clip-rule="evenodd" d="M7.611 4.8c.356 0 .406.004.446.013a.6.6 0 0 1 .173.065c.035.02.076.05.343.285l1.153 1.014.046.04c.205.182.402.355.633.483a2.4 2.4 0 0 0 .646.244c.257.057.52.056.793.056H16.3c.855 0 1.442 0 1.897.038.445.036.684.103.856.19a2.1 2.1 0 0 1 .918.919c.093.18.16.433.196.918a.9.9 0 0 0 1.795-.13c-.042-.588-.137-1.115-.387-1.606a3.9 3.9 0 0 0-1.704-1.704c-.47-.239-.971-.336-1.527-.381-.537-.044-1.198-.044-2.006-.044h-4.432c-.374 0-.427-.005-.469-.014a.6.6 0 0 1-.161-.061c-.038-.02-.08-.052-.361-.299L9.762 3.812l-.044-.039c-.195-.172-.382-.337-.6-.46a2.4 2.4 0 0 0-.694-.262C8.18 2.999 7.93 3 7.67 3h-.094c-.767 0-1.395 0-1.906.04-.53.04-1.008.128-1.458.345A3.9 3.9 0 0 0 2.385 5.21c-.217.45-.304.929-.345 1.457C2 7.18 2 7.808 2 8.575v5.763c0 .808 0 1.469.044 2.006.045.555.142 1.058.381 1.526a3.9 3.9 0 0 0 1.704 1.705c.47.239.971.336 1.527.381C6.193 20 6.854 20 7.662 20h3.643a.9.9 0 0 0 0-1.8H7.7c-.855 0-1.442 0-1.897-.038-.445-.036-.683-.103-.856-.19a2.1 2.1 0 0 1-.918-.919c-.088-.172-.155-.411-.191-.856C3.8 15.742 3.8 15.155 3.8 14.3V8.61c0-.812 0-1.37.034-1.803.033-.423.094-.652.173-.818a2.1 2.1 0 0 1 .983-.983c.166-.08.395-.14.818-.173.433-.033.99-.034 1.803-.034ZM21.5 13.992a2.994 2.994 0 0 0-3-2.992l-.176.005a3.003 3.003 0 0 0-2.824 2.996V15l-.748.001a.76.76 0 0 0-.752.76v4.48c0 .42.337.759.752.759h7.496a.76.76 0 0 0 .752-.76v-4.48c0-.42-.337-.759-.752-.759L21.5 15v-1.008Zm-3.145-1.485.145-.007c.828 0 1.5.666 1.5 1.5v1.001h-3V14c0-.78.59-1.42 1.355-1.493Z"/></symbol><symbol viewBox="0 0 24 24" id="icon-folder_simple_plus_outline_24" xmlns="http://www.w3.org/2000/svg"><path fill-rule="evenodd" clip-rule="evenodd" d="M7.611 4.8c.356 0 .406.004.446.013a.6.6 0 0 1 .173.065c.035.02.076.05.343.285l1.153 1.014.045.04c.206.182.403.355.633.483a2.4 2.4 0 0 0 .646.244c.258.057.52.056.794.056H16.3c.855 0 1.442 0 1.897.038.445.036.684.103.856.19a2.1 2.1 0 0 1 .918.919c.081.16.152.43.19.937.038.503.039 1.138.039 1.99a.9.9 0 1 0 1.8 0v-.031c0-.814 0-1.516-.043-2.094-.044-.58-.137-1.138-.382-1.62a3.9 3.9 0 0 0-1.704-1.704c-.47-.239-.971-.336-1.527-.381-.537-.044-1.198-.044-2.006-.044h-4.432c-.374 0-.427-.005-.469-.014a.6.6 0 0 1-.161-.061c-.038-.02-.08-.052-.361-.299L9.762 3.812l-.044-.039c-.195-.172-.382-.337-.6-.46a2.4 2.4 0 0 0-.694-.262C8.18 2.999 7.93 3 7.67 3h-.094c-.767 0-1.395 0-1.907.04-.528.04-1.007.128-1.457.345A3.9 3.9 0 0 0 2.385 5.21c-.217.45-.304.929-.345 1.457C2 7.18 2 7.808 2 8.575v5.763c0 .808 0 1.469.044 2.006.045.555.142 1.058.381 1.526a3.9 3.9 0 0 0 1.704 1.705c.47.239.971.336 1.527.381C6.193 20 6.854 20 7.662 20h5.317a.9.9 0 1 0 0-1.8H7.7c-.855 0-1.442 0-1.897-.038-.445-.036-.684-.103-.856-.19a2.1 2.1 0 0 1-.918-.919c-.088-.172-.155-.411-.191-.856C3.8 15.742 3.8 15.155 3.8 14.3V8.61c0-.812 0-1.37.034-1.803.033-.423.094-.652.173-.818a2.1 2.1 0 0 1 .983-.983c.166-.08.395-.14.818-.173.433-.033.99-.034 1.803-.034Zm12.295 9.106a.9.9 0 1 0-1.8 0v2.2h-2.2a.9.9 0 0 0 0 1.8h2.2V20.1a.9.9 0 0 0 1.8 0v-2.194L22.1 17.9a.9.9 0 0 0 0-1.8l-2.194.006v-2.2Z"/></symbol><symbol viewBox="0 0 24 24" id="icon-folder_simple_user_outline_24" xmlns="http://www.w3.org/2000/svg"><path fill-rule="evenodd" clip-rule="evenodd" d="M7.611 4.8c.356 0 .406.004.446.013a.6.6 0 0 1 .173.065c.035.02.076.05.343.285l1.153 1.014.045.04c.206.182.403.356.633.483a2.4 2.4 0 0 0 .646.244c.258.057.52.056.794.056H16.3c.855 0 1.442 0 1.897.038.445.036.684.103.856.19a2.1 2.1 0 0 1 .918.919c.134.263.196.451.218 1.196a.9.9 0 0 0 1.799-.052c-.026-.871-.107-1.361-.413-1.962a3.9 3.9 0 0 0-1.704-1.704c-.47-.239-.971-.336-1.527-.381-.537-.044-1.198-.044-2.006-.044h-4.432c-.374 0-.427-.005-.469-.014a.6.6 0 0 1-.161-.06c-.038-.022-.08-.053-.361-.3L9.762 3.812l-.044-.039c-.195-.172-.382-.337-.6-.46a2.4 2.4 0 0 0-.694-.262C8.18 2.999 7.93 3 7.67 3h-.094c-.767 0-1.395 0-1.907.04-.528.04-1.007.128-1.457.345A3.9 3.9 0 0 0 2.385 5.21c-.217.45-.304.929-.345 1.457C2 7.18 2 7.808 2 8.575v5.763c0 .808 0 1.469.044 2.006.045.556.142 1.058.381 1.527a3.9 3.9 0 0 0 1.704 1.704c.47.239.971.336 1.527.381C6.193 20 6.854 20 7.662 20h2.68a.9.9 0 1 0 0-1.8H7.7c-.855 0-1.442 0-1.897-.038-.445-.036-.684-.103-.856-.19a2.1 2.1 0 0 1-.918-.919c-.088-.172-.155-.411-.191-.856C3.8 15.742 3.8 15.155 3.8 14.3V8.611c0-.812 0-1.37.034-1.803.033-.423.094-.652.173-.818a2.1 2.1 0 0 1 .983-.983c.166-.08.395-.14.818-.173.433-.033.99-.034 1.803-.034ZM18 11a2.5 2.5 0 1 1 .001 4.999A2.5 2.5 0 0 1 18 11Zm-5 9.372v-.622c0-2.188 3.331-2.813 5-2.813s5 .625 5 2.813v.622a.628.628 0 0 1-.628.628h-8.744a.628.628 0 0 1-.628-.628Z"/></symbol><symbol viewBox="0 0 24 24" id="icon-gear_outline_24" xmlns="http://www.w3.org/2000/svg"><path d="M12.723 2.213c1.207.037 1.993.702 2.407 1.954l.065.215.051.191c.019.074.042.153.069.235l.057.159.034.017.069-.023.134-.05.155-.069c1.414-.658 2.502-.536 3.387.437l.126.145.82 1.017c.73.962.709 1.99-.004 3.1l-.126.187-.117.16a3.358 3.358 0 0 0-.142.205l-.07.115-.034.057.004.02.092.06.126.077.154.083c1.389.71 1.962 1.641 1.74 2.936l-.036.188-.244 1.058c-.158.685-.283 1.01-.771 1.454-.475.432-1.016.61-1.732.67l-.22.014-.198.006a3.36 3.36 0 0 0-.246.015l-.181.021.013.142.014.096.032.179c.323 1.526-.04 2.558-1.188 3.202l-.17.09-1.174.57c-1.102.495-2.1.242-3.021-.702l-.153-.164-.13-.15a3.369 3.369 0 0 0-.17-.186l-.096-.096-.05-.046-.092.087-.105.108-.117.133c-.953 1.134-1.958 1.54-3.177 1.067l-.175-.074-1.052-.51-.312-.16c-.476-.26-.743-.51-1.004-1.061-.275-.58-.293-1.15-.16-1.883l.044-.225a3.33 3.33 0 0 0 .042-.242l.018-.172-.004-.004-.104-.014-.146-.013-.174-.008c-1.56-.028-2.483-.614-2.853-1.877l-.049-.185-.291-1.274c-.235-1.185.235-2.1 1.363-2.785l.194-.112.175-.093c.07-.035.142-.075.216-.12l.155-.102.004-.019-.063-.108-.08-.125-.102-.143c-.938-1.246-1.045-2.335-.277-3.404l.116-.153.823-1.013c.79-.915 1.8-1.107 3.035-.64l.208.083.18.081c.069.032.143.063.222.093l.136.048.036-.017.034-.089.045-.138.046-.166c.359-1.436 1.084-2.242 2.39-2.35l.19-.011h1.389Zm-.057 1.799h-1.332l-.14.01c-.286.037-.473.192-.653.832l-.041.156-.056.206c-.106.352-.264.749-.468 1.134a5.85 5.85 0 0 0-1.148.558 6.451 6.451 0 0 1-1.16-.35l-.35-.154c-.248-.107-.435-.161-.582-.175l-.084-.003a.55.55 0 0 0-.409.193l-.068.075-.789.972-.094.125c-.184.264-.211.5.194 1.076l.229.315c.212.31.424.692.597 1.102-.129.384-.22.786-.27 1.201-.333.29-.69.537-1.013.72l-.342.184c-.617.34-.696.563-.647.881l.013.075.28 1.22.041.152c.095.308.264.475.967.509l.388.014c.37.024.798.09 1.223.204.225.35.485.674.776.968a6.257 6.257 0 0 1-.118 1.445c-.201.95-.014 1.102.384 1.3l1.126.547a.8.8 0 0 0 .336.089l.068-.006c.18-.028.381-.162.67-.485l.258-.295c.256-.278.584-.574.948-.837l.298.023L12 18l.302-.008.298-.022c.364.263.691.559.948.837l.258.295c.325.364.538.488.738.49l.066-.003a.753.753 0 0 0 .177-.046l.093-.039 1.126-.548.14-.073c.299-.175.42-.395.244-1.226a6.194 6.194 0 0 1-.117-1.445c.29-.294.55-.619.775-.97a6.456 6.456 0 0 1 1.223-.202l.387-.014c.812-.04.912-.256 1.008-.66l.264-1.142c.09-.406.095-.643-.617-1.035l-.342-.183a6.422 6.422 0 0 1-1.013-.722 5.948 5.948 0 0 0-.271-1.201c.174-.41.386-.791.598-1.1l.229-.316c.405-.576.378-.812.194-1.076l-.045-.062-.787-.974c-.14-.171-.259-.294-.452-.322l-.076-.007c-.16-.003-.368.05-.667.178l-.35.155a6.366 6.366 0 0 1-1.158.348 5.878 5.878 0 0 0-1.15-.556 6.486 6.486 0 0 1-.454-1.093l-.113-.414c-.192-.678-.393-.805-.713-.828l-.077-.004ZM12 8.2a3.8 3.8 0 1 1 0 7.6 3.8 3.8 0 0 1 0-7.6Zm0 1.8a2 2 0 1 0 0 4 2 2 0 0 0 0-4Z"/></symbol><symbol viewBox="0 0 24 24" id="icon-globe_outline_24" xmlns="http://www.w3.org/2000/svg"><path fill-rule="evenodd" clip-rule="evenodd" d="M3.9 12c0-.726.096-1.43.275-2.1h4.05a17.728 17.728 0 0 0 0 4.2h-4.05A8.111 8.111 0 0 1 3.9 12Zm4.632 3.9H4.899a8.119 8.119 0 0 0 4.947 3.91 19.61 19.61 0 0 1-1.314-3.91Zm5.622 3.91A8.119 8.119 0 0 0 19.1 15.9h-3.633a19.612 19.612 0 0 1-1.314 3.91Zm-.534-3.91A17.81 17.81 0 0 1 12 20.098a17.81 17.81 0 0 1-1.62-4.198h3.24Zm.34-1.8h-3.92a15.967 15.967 0 0 1 0-4.2h3.92a15.971 15.971 0 0 1 0 4.2Zm1.814 0h4.051A8.11 8.11 0 0 0 20.1 12a8.11 8.11 0 0 0-.275-2.1h-4.05a17.72 17.72 0 0 1 0 4.2Zm-.306-6h3.633a8.119 8.119 0 0 0-4.947-3.91 19.61 19.61 0 0 1 1.314 3.91ZM9.846 4.19A8.119 8.119 0 0 0 4.9 8.1h3.633a19.608 19.608 0 0 1 1.314-3.91Zm.534 3.91h3.24A17.811 17.811 0 0 0 12 3.902 17.811 17.811 0 0 0 10.38 8.1Zm1.62-6c-5.468 0-9.9 4.432-9.9 9.9s4.432 9.9 9.9 9.9 9.9-4.432 9.9-9.9-4.432-9.9-9.9-9.9Z"/></symbol><symbol viewBox="0 0 24 24" id="icon-hand_outline_24" xmlns="http://www.w3.org/2000/svg"><path fill-rule="evenodd" clip-rule="evenodd" d="M4 8.825C4 7.542 5.02 6.414 6.394 6.414c.13 0 .258.01.382.03v-.385c0-1.266 1-2.419 2.395-2.419.17 0 .336.017.494.05C9.964 2.74 10.834 2 11.949 2c1.238 0 2.187.916 2.365 2.035A2.388 2.388 0 0 1 17.122 6.4v3.151a2.377 2.377 0 0 1 1.39-.432c.989.008 1.712.6 2.114 1.222a2.4 2.4 0 0 1 .368 1.135c.021.317-.01.74-.206 1.164l-2.126 4.612c-.64 1.39-1.767 2.556-3.016 3.371C14.4 21.437 12.88 22 11.352 22h-.791c-3.68 0-6.562-3.061-6.562-6.727V8.825ZM15.321 6.4c0-.347-.266-.6-.595-.6a.593.593 0 0 0-.595.6v4.783c0 .386-.26.71-.61.795a.77.77 0 0 1-.48-.037.815.815 0 0 1-.498-.757V4.416a.604.604 0 0 0-.595-.616.605.605 0 0 0-.595.616v6.768a.824.824 0 0 1-.498.757.762.762 0 0 1-.508.03.795.795 0 0 1-.48-.388.837.837 0 0 1-.1-.4V6.056a.628.628 0 0 0-.214-.471.578.578 0 0 0-.382-.146.606.606 0 0 0-.595.617v5.534a.838.838 0 0 1-.37.69.764.764 0 0 1-.608.107.812.812 0 0 1-.61-.797V8.825a.627.627 0 0 0-.212-.467.58.58 0 0 0-.382-.144.602.602 0 0 0-.596.61v6.449c0 2.729 2.132 4.927 4.762 4.927h.791c2.201 0 4.734-1.657 5.676-3.701l2.125-4.613a.664.664 0 0 0-.04-.569c-.338-.525-.887-.532-1.225-.014l-.004.006-1.728 2.678c-.457.71-.834.596-.834-.264V6.4Z"/></symbol><symbol viewBox="0 0 24 24" id="icon-help_outline_24" xmlns="http://www.w3.org/2000/svg"><path fill-rule="evenodd" clip-rule="evenodd" d="M4.929 4.929A9.972 9.972 0 0 1 12 2a9.972 9.972 0 0 1 7.071 2.929A9.971 9.971 0 0 1 22 12a9.971 9.971 0 0 1-2.929 7.071A9.972 9.972 0 0 1 12 22a9.972 9.972 0 0 1-7.071-2.929A9.972 9.972 0 0 1 2 12a9.972 9.972 0 0 1 2.929-7.071ZM12 3.8a8.171 8.171 0 0 0-5.798 2.402A8.172 8.172 0 0 0 3.8 12c0 2.265.917 4.313 2.402 5.798A8.171 8.171 0 0 0 12 20.2a8.172 8.172 0 0 0 5.798-2.402A8.172 8.172 0 0 0 20.2 12a8.171 8.171 0 0 0-2.402-5.798A8.172 8.172 0 0 0 12 3.8Z"/><path fill-rule="evenodd" clip-rule="evenodd" d="M11.232 8.09c-.254.195-.409.434-.46.634a.9.9 0 0 1-1.744-.448c.17-.663.6-1.224 1.108-1.613C10.646 6.272 11.303 6 12 6c1.602 0 3 1.398 3 3 0 1.37-.75 2.22-1.285 2.807-.599.655-.815.91-.815 1.293a.9.9 0 1 1-1.8 0c0-1.123.71-1.886 1.174-2.386l.111-.12c.515-.565.815-.965.815-1.594 0-.608-.592-1.2-1.2-1.2-.235 0-.516.097-.768.29Z"/><path d="M13.2 16.6a1.2 1.2 0 1 1-2.4 0 1.2 1.2 0 0 1 2.4 0Z"/></symbol><symbol viewBox="0 0 24 24" id="icon-hide_outline_24" xmlns="http://www.w3.org/2000/svg"><path fill-rule="evenodd" clip-rule="evenodd" d="M11.593 6.41a.9.9 0 0 1-.092-1.797c2.759-.141 5.574.953 7.649 2.5.975.728 1.787 1.554 2.356 2.396.57.843.894 1.7.894 2.49 0 .941-.464 1.982-1.242 2.967a.9.9 0 1 1-1.413-1.116c.41-.519.855-1.168.855-1.85 0-.312-.139-.822-.585-1.483-.436-.646-1.097-1.33-1.941-1.96-1.836-1.37-4.169-2.265-6.48-2.147ZM4.85 16.886C6.8 18.341 9.4 19.4 12 19.4c1.967 0 3.93-.607 5.604-1.523l1.26 1.26a.9.9 0 0 0 1.272-1.273l-13.5-13.5a.9.9 0 0 0-1.272 1.272l.684.684c-.42.246-.82.512-1.198.794-.975.727-1.787 1.553-2.356 2.395-.57.843-.894 1.7-.894 2.49 0 .791.325 1.65.894 2.492.569.841 1.381 1.668 2.356 2.395ZM10.4 12a1.6 1.6 0 0 0 2.587 1.26l-2.247-2.247c-.213.272-.34.615-.34.987Zm1.6 3.4a3.4 3.4 0 0 1-2.537-5.664L7.37 7.643c-.513.273-.998.581-1.444.914-.844.63-1.505 1.314-1.94 1.96-.448.662-.586 1.17-.586 1.483 0 .312.138.821.585 1.483.436.645 1.097 1.33 1.941 1.96C7.631 16.715 9.862 17.6 12 17.6c1.44 0 2.925-.401 4.269-1.058l-2.005-2.005A3.39 3.39 0 0 1 12 15.4Z"/></symbol><symbol viewBox="0 0 24 24" id="icon-history_backward_outline_24" xmlns="http://www.w3.org/2000/svg"><path fill-rule="evenodd" clip-rule="evenodd" d="M12 7.1a.9.9 0 0 1 .9.9v3.727l2.236 2.237a.9.9 0 1 1-1.272 1.272l-2.5-2.5a.9.9 0 0 1-.264-.636V8a.9.9 0 0 1 .9-.9Z"/><path d="M19 5a9.872 9.872 0 0 0-7-2.9 9.873 9.873 0 0 0-7.1 3V3a.9.9 0 0 0-1.8 0v4a.9.9 0 0 0 .9.9h4a.9.9 0 0 0 0-1.8H6.45A8.069 8.069 0 0 1 12 3.9c2.237 0 4.26.906 5.728 2.372A8.072 8.072 0 0 1 20.1 12c0 2.237-.906 4.26-2.372 5.727A8.072 8.072 0 0 1 12 20.1a8.064 8.064 0 0 1-5.203-1.891.9.9 0 1 0-1.156 1.379A9.864 9.864 0 0 0 12 21.9c2.733 0 5.21-1.11 7-2.9a9.872 9.872 0 0 0 2.9-7A9.872 9.872 0 0 0 19 5Z"/></symbol><symbol viewBox="0 0 24 24" id="icon-info_circle_outline_24" xmlns="http://www.w3.org/2000/svg"><path d="M12 20.105a8.105 8.105 0 1 0 0-16.21 8.105 8.105 0 0 0 0 16.21ZM12 22C6.477 22 2 17.523 2 12S6.477 2 12 2s10 4.477 10 10-4.477 10-10 10Zm0-12.372a1.316 1.316 0 1 1 0-2.632 1.316 1.316 0 0 1 0 2.632Zm-.947 2.822c0-.541.424-.98.947-.98.523 0 .947.439.947.98v3.83c0 .54-.424.98-.947.98-.523 0-.947-.44-.947-.98v-3.83Z"/></symbol><symbol viewBox="0 0 24 24" id="icon-laptop_outline_24" xmlns="http://www.w3.org/2000/svg"><path fill-rule="evenodd" clip-rule="evenodd" d="M7.2 5.1h-.035c-.53 0-.981 0-1.352.03-.39.032-.768.102-1.13.286a2.9 2.9 0 0 0-1.267 1.267c-.184.362-.254.74-.286 1.13-.03.37-.03.822-.03 1.352V17.1H2.063c-1.13 0-1.322 1.618-.223 1.882l1.815.435c.23.055.464.083.7.083h15.29c.236 0 .47-.028.7-.083l1.815-.435c1.099-.264.907-1.882-.223-1.882H20.9V9.165c0-.53 0-.981-.03-1.352-.032-.39-.102-.768-.286-1.13a2.9 2.9 0 0 0-1.267-1.267c-.362-.184-.741-.254-1.13-.286-.37-.03-.822-.03-1.352-.03H7.2Zm11.9 12V9.2c0-.575 0-.952-.024-1.24-.023-.278-.062-.394-.096-.46a1.1 1.1 0 0 0-.48-.48c-.067-.034-.182-.073-.46-.096-.288-.023-.665-.024-1.24-.024H7.2c-.575 0-.952 0-1.24.024-.278.023-.394.062-.46.096a1.1 1.1 0 0 0-.48.48c-.034.066-.073.182-.096.46-.023.288-.024.665-.024 1.24v7.9h14.2Z"/></symbol><symbol viewBox="0 0 24 24" id="icon-lightbulb_star_outline_24" xmlns="http://www.w3.org/2000/svg"><path d="M18.924 4.305a.447.447 0 0 0-.848 0l-.457 1.373a1.488 1.488 0 0 1-.942.94l-1.372.458a.447.447 0 0 0 0 .848l1.372.457c.445.148.794.497.942.941l.457 1.373a.447.447 0 0 0 .848 0l.457-1.373c.148-.444.497-.793.941-.941l1.373-.457a.447.447 0 0 0 0-.848l-1.373-.457a1.489 1.489 0 0 1-.941-.941l-.457-1.373Z"/><path fill-rule="evenodd" clip-rule="evenodd" d="M5.8 10.345C5.8 6.688 8.594 3.8 12 3.8c1.075 0 2.08.282 2.956.78a.9.9 0 0 0 .89-1.565A7.753 7.753 0 0 0 12 2c-4.483 0-8 3.78-8 8.345 0 2.366.78 3.9 1.72 5.1.358.457.747.875 1.094 1.246l.253.273c.384.417.697.784.934 1.168l.411 1.728c.058.241.112.466.171.654.065.206.154.424.307.632a2.1 2.1 0 0 0 .871.687c.238.101.47.137.686.153.196.014.428.014.676.014h1.754c.248 0 .48 0 .676-.014a2.11 2.11 0 0 0 .686-.153 2.1 2.1 0 0 0 .87-.687c.154-.209.243-.426.308-.632.06-.188.113-.413.17-.654L16 18.132c.299-.486.706-.924 1.212-1.467l.154-.166c.59-.636 1.263-1.388 1.776-2.379a.9.9 0 0 0-1.598-.828c-.392.758-.918 1.358-1.497 1.983l-.168.18c-.432.462-.905.969-1.29 1.545H12.9v-2.054l1.745-1.33a.9.9 0 0 0-1.09-1.432L12 13.368l-1.555-1.184a.9.9 0 0 0-1.09 1.432l1.745 1.33V17H9.412c-.31-.466-.673-.877-1.02-1.255a71.318 71.318 0 0 0-.288-.31c-.34-.365-.661-.71-.967-1.1-.737-.94-1.337-2.095-1.337-3.99Zm4.357 9.071c.066.277.105.437.142.555a.671.671 0 0 0 .042.108.3.3 0 0 0 .121.096c.008.003.04.01.115.015.124.01.289.01.572.01h1.702c.283 0 .448 0 .572-.01a.652.652 0 0 0 .115-.015.3.3 0 0 0 .121-.096.671.671 0 0 0 .042-.108c.037-.118.076-.278.142-.555l.147-.616h-3.98l.147.616Z"/></symbol><symbol viewBox="0 0 24 24" id="icon-like_outline_24" xmlns="http://www.w3.org/2000/svg"><path d="M15.992 4.006c-1.452.064-2.753.637-3.881 1.694l-.117.113-.122-.118C10.662 4.576 9.275 4 7.734 4 4.577 4 2 6.56 2 9.717c0 3.088 1.127 4.552 6.182 8.546l2.688 2.098a1.838 1.838 0 0 0 2.26 0l2.364-1.843.933-.74C20.965 14.144 22 12.676 22 9.718 22 6.56 19.423 4 16.266 4l-.274.006Zm.274 1.794c2.165 0 3.934 1.757 3.934 3.917l-.005.294c-.076 2.156-1.062 3.341-5.509 6.852l-2.663 2.078a.038.038 0 0 1-.046 0l-2.364-1.843-.874-.691c-4.142-3.31-4.939-4.44-4.939-6.69C3.8 7.557 5.569 5.8 7.734 5.8c1.333 0 2.507.618 3.57 1.915a.9.9 0 0 0 1.398-.007C13.739 6.416 14.909 5.8 16.266 5.8Z"/></symbol><symbol viewBox="0 0 24 24" id="icon-location_outline_24" xmlns="http://www.w3.org/2000/svg"><path d="M10.794 20.458a1.7 1.7 0 0 0 3.272.472l5.83-14.617a1.7 1.7 0 0 0-2.209-2.21L3.07 9.935a1.7 1.7 0 0 0 .472 3.272l6.632.62.62 6.632Zm7.344-14.596-5.59 14.015-.722-7.703-7.703-.722 14.015-5.59Z"/></symbol><symbol viewBox="0 0 24 24" id="icon-lock_open_outline_24" xmlns="http://www.w3.org/2000/svg"><path d="M12 13a1 1 0 0 1 1 1v2a1 1 0 1 1-2 0v-2a1 1 0 0 1 1-1Z"/><path fill-rule="evenodd" clip-rule="evenodd" d="M7.1 7a4.9 4.9 0 0 1 9.395-1.954.9.9 0 1 1-1.65.718 3.082 3.082 0 0 0-.159-.314A3.1 3.1 0 0 0 8.9 7v1.1h6.338c.808 0 1.469 0 2.006.044.556.045 1.058.142 1.527.381a3.9 3.9 0 0 1 1.704 1.704c.239.47.336.971.381 1.527.044.537.044 1.198.044 2.006v2.476c0 .808 0 1.469-.044 2.006-.045.556-.142 1.058-.381 1.527a3.9 3.9 0 0 1-1.704 1.704c-.47.239-.971.336-1.527.381-.537.044-1.198.044-2.006.044H8.762c-.808 0-1.469 0-2.006-.044-.556-.045-1.058-.142-1.526-.381a3.9 3.9 0 0 1-1.705-1.704c-.239-.47-.336-.971-.381-1.527-.044-.537-.044-1.198-.044-2.006v-2.476c0-.808 0-1.469.044-2.006.045-.556.142-1.058.381-1.527A3.9 3.9 0 0 1 5.23 8.525c.468-.239.97-.336 1.526-.381.11-.01.224-.016.344-.022V7Zm-.197 2.938c-.445.036-.683.103-.856.19a2.1 2.1 0 0 0-.918.919c-.088.172-.155.411-.191.856-.037.455-.038 1.042-.038 1.897v2.4c0 .855 0 1.442.038 1.897.036.445.103.683.191.856a2.1 2.1 0 0 0 .918.918c.173.088.411.155.856.191.455.037 1.042.038 1.897.038h6.4c.855 0 1.442 0 1.897-.038.445-.036.684-.103.856-.19a2.1 2.1 0 0 0 .918-.919c.088-.172.155-.411.191-.856.037-.455.038-1.042.038-1.897v-2.4c0-.855 0-1.442-.038-1.897-.036-.445-.103-.684-.19-.856a2.1 2.1 0 0 0-.919-.918c-.172-.088-.411-.155-.856-.191C16.642 9.9 16.055 9.9 15.2 9.9H8.8c-.855 0-1.442 0-1.897.038Z"/></symbol><symbol viewBox="0 0 24 24" id="icon-lock_outline_24" xmlns="http://www.w3.org/2000/svg"><path fill-rule="evenodd" clip-rule="evenodd" d="M12 13a1 1 0 0 1 1 1v2a1 1 0 1 1-2 0v-2a1 1 0 0 1 1-1Z"/><path fill-rule="evenodd" clip-rule="evenodd" d="M18.77 8.525c-.578-.295-1.23-.373-1.87-.403V7a4.9 4.9 0 1 0-9.8 0v1.122c-.64.03-1.292.108-1.87.403a3.9 3.9 0 0 0-1.705 1.704c-.239.47-.336.971-.381 1.527-.044.537-.044 1.198-.044 2.006v2.476c0 .808 0 1.469.044 2.006.045.556.142 1.058.381 1.526a3.9 3.9 0 0 0 1.704 1.705c.47.239.971.336 1.527.381.537.044 1.198.044 2.006.044h6.476c.808 0 1.469 0 2.006-.044.556-.045 1.058-.142 1.527-.381a3.9 3.9 0 0 0 1.704-1.705c.239-.468.336-.97.381-1.526.044-.537.044-1.198.044-2.006v-2.476c0-.808 0-1.469-.044-2.006-.045-.556-.142-1.058-.381-1.527a3.9 3.9 0 0 0-1.704-1.704ZM6.904 9.938c-.445.036-.684.103-.856.19a2.1 2.1 0 0 0-.918.919c-.088.172-.155.411-.191.856-.037.455-.038 1.042-.038 1.897v2.4c0 .855 0 1.442.038 1.897.036.445.103.683.19.856a2.1 2.1 0 0 0 .919.918c.172.088.411.155.856.191.455.037 1.042.038 1.897.038h6.4c.855 0 1.442 0 1.897-.038.445-.036.683-.103.856-.19a2.1 2.1 0 0 0 .918-.919c.088-.172.155-.411.191-.856.037-.455.038-1.042.038-1.897v-2.4c0-.855 0-1.442-.038-1.897-.036-.445-.103-.684-.19-.856a2.1 2.1 0 0 0-.919-.918c-.172-.088-.411-.155-.856-.191C16.642 9.9 16.055 9.9 15.2 9.9H8.8c-.855 0-1.442 0-1.897.038ZM15.1 7a3.1 3.1 0 1 0-6.2 0v1.1h6.2V7Z"/><path fill-rule="evenodd" clip-rule="evenodd" d="M13 14a1 1 0 1 0-2 0v2a1 1 0 1 0 2 0v-2Z"/></symbol><symbol viewBox="0 0 24 24" id="icon-mail_outline_24" xmlns="http://www.w3.org/2000/svg"><path fill-rule="evenodd" clip-rule="evenodd" d="M7.8 4.1h-.038c-.808 0-1.469 0-2.006.044-.556.045-1.058.142-1.527.381A3.9 3.9 0 0 0 2.525 6.23c-.239.47-.336.971-.381 1.527C2.1 8.293 2.1 8.954 2.1 9.762V14.238c0 .808 0 1.469.044 2.006.045.556.142 1.058.381 1.527a3.9 3.9 0 0 0 1.704 1.704c.47.239.971.336 1.527.381.537.044 1.198.044 2.006.044h8.476c.808 0 1.469 0 2.006-.044.556-.045 1.058-.142 1.526-.381a3.9 3.9 0 0 0 1.705-1.704c.239-.47.336-.971.381-1.527.044-.537.044-1.198.044-2.006V9.762c0-.808 0-1.469-.044-2.006-.045-.556-.142-1.058-.381-1.527a3.9 3.9 0 0 0-1.705-1.704c-.468-.239-.97-.336-1.526-.381-.537-.044-1.198-.044-2.006-.044H7.8ZM5.38 6.012c.136-.031.305-.056.523-.074C6.358 5.9 6.945 5.9 7.8 5.9h8.4c.855 0 1.442 0 1.897.038.218.018.387.043.522.074L14.61 9.52c-.577.506-.973.851-1.303 1.097-.32.24-.524.343-.7.396a2.14 2.14 0 0 1-1.214 0c-.176-.053-.38-.156-.7-.396-.33-.246-.726-.591-1.303-1.097L5.38 6.012ZM4.05 7.24a3.02 3.02 0 0 0-.112.663C3.9 8.358 3.9 8.945 3.9 9.8v4.4c0 .855 0 1.442.038 1.897.036.445.103.683.19.856a2.1 2.1 0 0 0 .919.918c.172.088.411.155.856.191.455.037 1.042.038 1.897.038h8.4c.855 0 1.442 0 1.897-.038.445-.036.683-.103.856-.19a2.1 2.1 0 0 0 .918-.919c.088-.172.155-.411.191-.856.037-.455.038-1.042.038-1.897V9.8c0-.855 0-1.442-.038-1.897a3.023 3.023 0 0 0-.112-.663l-4.154 3.635-.027.023c-.545.477-.992.868-1.384 1.16-.406.305-.805.544-1.268.68a3.94 3.94 0 0 1-2.234 0c-.463-.136-.862-.375-1.268-.68-.392-.292-.84-.683-1.384-1.16l-.027-.023L4.05 7.24Z"/></symbol><symbol viewBox="0 0 24 24" id="icon-message_add_badge_outline_24" xmlns="http://www.w3.org/2000/svg"><path fill-rule="evenodd" clip-rule="evenodd" d="M22 8a5 5 0 1 0-10 0 5 5 0 0 0 10 0Zm-5.828-2.764a.833.833 0 0 1 1.661.097v1.834h1.834l.097.005a.833.833 0 0 1-.097 1.661h-1.834v1.834l-.005.097a.833.833 0 0 1-1.661-.097V8.833h-1.834l-.097-.005a.833.833 0 0 1 .097-1.661h1.834V5.333l.005-.097Z"/><path d="M10.187 4.88a.9.9 0 0 0-.374-1.76c-4.24.899-7.681 4.457-7.681 8.587a7.72 7.72 0 0 0 1.377 4.38c-.04.519-.187 1.07-.404 1.657a22.75 22.75 0 0 1-.662 1.55c-.077.17-.155.34-.232.513-.39.865.282 1.828 1.21 1.792 2.195-.086 4-.638 5.247-1.79 1.048.327 2.175.505 3.348.505 3.643 0 7.02-1.636 8.742-4.329a.9.9 0 0 0-1.516-.97c-1.331 2.08-4.074 3.499-7.226 3.499a9.338 9.338 0 0 1-3.281-.586.9.9 0 0 0-1.002.26c-.678.797-1.8 1.353-3.513 1.547.197-.434.4-.9.574-1.367.289-.783.525-1.653.525-2.553a.9.9 0 0 0-.177-.537c-.773-1.04-1.21-2.265-1.21-3.571 0-3.103 2.66-6.064 6.255-6.827Z"/></symbol><symbol viewBox="0 0 24 24" id="icon-message_outline_24" xmlns="http://www.w3.org/2000/svg"><path fill-rule="evenodd" clip-rule="evenodd" d="M12.016 4.9c-4.6 0-8.084 3.172-8.084 6.807 0 1.306.437 2.532 1.21 3.571a.9.9 0 0 1 .177.537c0 1.38-.54 2.684-1.099 3.92 1.714-.194 2.835-.75 3.513-1.547a.9.9 0 0 1 1.002-.26c1 .376 2.11.586 3.28.586 4.6 0 8.085-3.172 8.085-6.807 0-3.635-3.485-6.807-8.084-6.807Zm-9.884 6.807c0-4.878 4.56-8.607 9.884-8.607 5.324 0 9.884 3.729 9.884 8.607 0 4.878-4.56 8.607-9.884 8.607-1.173 0-2.3-.178-3.348-.506C7.42 20.961 5.616 21.513 3.42 21.6c-.927.036-1.598-.927-1.209-1.792.529-1.183 1.197-2.403 1.298-3.72a7.72 7.72 0 0 1-1.377-4.38Z"/></symbol><symbol viewBox="0 0 24 24" id="icon-messages_outline_24" xmlns="http://www.w3.org/2000/svg"><path fill-rule="evenodd" clip-rule="evenodd" d="M9.5 3.1c-3.94 0-7.4 2.73-7.4 6.4 0 1.21.388 2.334 1.046 3.286a13.5 13.5 0 0 1-.792 2.463c-.323.748.235 1.726 1.196 1.597.74-.1 2.335-.393 3.748-1.233A8.49 8.49 0 0 0 9.5 15.9c3.94 0 7.4-2.73 7.4-6.4 0-3.67-3.46-6.4-7.4-6.4ZM3.9 9.5c0-2.405 2.36-4.6 5.6-4.6 3.24 0 5.6 2.195 5.6 4.6s-2.36 4.6-5.6 4.6c-.73 0-1.425-.115-2.06-.322a.9.9 0 0 0-.788.113c-.694.475-1.514.77-2.213.95.204-.598.414-1.329.552-2.117a.9.9 0 0 0-.182-.716C4.226 11.275 3.9 10.414 3.9 9.5Z"/><path d="M18.975 8.425a.9.9 0 0 0-.04 1.272c.623.663 1.02 1.454 1.132 2.303h-.001c.022.162.034.325.034.49v.046c-.009.9-.333 1.749-.909 2.472a.9.9 0 0 0-.182.716c.138.788.348 1.52.552 2.117-.7-.18-1.519-.475-2.213-.95a.9.9 0 0 0-.788-.113 6.443 6.443 0 0 1-1.552.303 6.868 6.868 0 0 1-1.553-.061.9.9 0 1 0-.277 1.778 8.587 8.587 0 0 0 3.524-.185c1.412.84 3.008 1.133 3.748 1.233.961.129 1.52-.85 1.196-1.597a13.507 13.507 0 0 1-.792-2.463A5.749 5.749 0 0 0 21.878 12c-.12-1.349-.722-2.568-1.63-3.535a.9.9 0 0 0-1.273-.04Z"/></symbol><symbol viewBox="0 0 24 24" id="icon-minus_outline_24" xmlns="http://www.w3.org/2000/svg"><path d="M20.1 11.1H3.9a.9.9 0 1 0 0 1.8l7.2-.001h1.8l7.2.001a.9.9 0 0 0 0-1.8Z"/></symbol><symbol viewBox="0 0 24 24" id="icon-money_circle_outline_24" xmlns="http://www.w3.org/2000/svg"><path d="M12 1c6.075 0 11 4.925 11 11s-4.925 11-11 11S1 18.075 1 12 5.925 1 12 1Zm0 1.8a9.2 9.2 0 1 0 0 18.4 9.2 9.2 0 0 0 0-18.4ZM13.253 7a3.357 3.357 0 1 1 0 6.714H11V15h1.5a.75.75 0 0 1 0 1.5H11v.65a.85.85 0 0 1-1.7 0l-.001-.65H8.5a.75.75 0 0 1 0-1.5h.799v-1.286h-.692a.857.857 0 0 1 0-1.714H9.3L9.3 7.85c0-.47.38-.85.85-.85h3.103Zm.033 1.571H11V12h2.286a1.714 1.714 0 1 0 0-3.429Z"/></symbol><symbol viewBox="0 0 24 24" id="icon-mute_outline_24" xmlns="http://www.w3.org/2000/svg"><path d="M6.264 4.264a.9.9 0 0 1 1.272 0l12.2 12.2a.9.9 0 1 1-1.272 1.272L16 15.273v3.038c0 .995-.848 1.689-1.75 1.689-.762 0-1.505-.28-2.063-.798l-4.24-3.935H6.14c-1.118 0-2.14-.856-2.14-2.05v-2.433c0-1.195 1.022-2.05 2.14-2.05h1.807l.785-.73-2.468-2.468a.9.9 0 0 1 0-1.272Zm3.751 5.024c-.368.335-.74.668-1.103 1.005a.9.9 0 0 1-.612.24H6.14a.386.386 0 0 0-.265.097.208.208 0 0 0-.075.154v2.432c0 .047.019.101.075.154.058.054.15.097.265.097H8.3a.9.9 0 0 1 .612.24l4.5 4.175c.2.187.481.305.788.317v-4.726l-4.185-4.185ZM14.25 4c.902 0 1.75.694 1.75 1.689V8.01a.9.9 0 1 1-1.8 0V5.8a1.23 1.23 0 0 0-.789.316l-.13.122a.9.9 0 1 1-1.225-1.32l.13-.12A3.035 3.035 0 0 1 14.25 4Z"/></symbol><symbol viewBox="0 0 24 24" id="icon-notification_check_outline_24" xmlns="http://www.w3.org/2000/svg"><path d="M12.004 2.1c.675 0 1.326.092 1.944.273a.9.9 0 0 1-.506 1.728 5.097 5.097 0 0 0-1.438-.201c-2.895 0-5 2.31-5.1 5.491l-.004.24v1.6c0 .792-.336 1.375-1.055 2.147l-.727.75c-.535.572-.718.884-.718 1.2 0 .191.014.291.057.381.1.208.387.367 1.106.389l.174.002h12.526c.82 0 1.153-.169 1.272-.397.05-.095.065-.197.065-.376 0-.315-.183-.627-.718-1.198l-.554-.57-.258-.273a6.752 6.752 0 0 1-.216-.249.9.9 0 1 1 1.389-1.145c.074.09.159.185.265.297l.383.393c1.081 1.097 1.509 1.729 1.509 2.745 0 .445-.052.791-.268 1.206-.43.826-1.311 1.308-2.619 1.362l-.25.005h-1.886a1.013 1.013 0 0 1-.006.026C15.754 20.306 14.245 21.6 12 21.6c-2.245 0-3.754-1.294-4.371-3.674l-.006-.026H5.737c-1.488 0-2.466-.502-2.902-1.41-.191-.398-.235-.72-.235-1.163 0-.953.376-1.568 1.314-2.544l.465-.476.237-.253c.315-.35.455-.582.48-.764l.004-.059v-1.6C5.1 5.38 7.988 2.1 12.004 2.1Zm2.498 15.8H9.498c.45 1.319 1.245 1.9 2.502 1.9 1.257 0 2.052-.582 2.502-1.9Zm4.962-13.636a.9.9 0 0 1 1.272 1.272l-4.2 4.2a.9.9 0 0 1-1.272 0l-2-2a.9.9 0 1 1 1.272-1.272L15.9 7.827l3.564-3.563Z"/></symbol><symbol viewBox="0 0 24 24" id="icon-notification_outline_24" xmlns="http://www.w3.org/2000/svg"><path d="M12.004 2.1c4.015 0 6.896 3.278 6.896 7.532v1.6c0 .228.193.531.72 1.075l.27.275c1.082 1.097 1.51 1.729 1.51 2.745 0 .445-.052.791-.268 1.206-.456.878-1.423 1.367-2.869 1.367l-1.912.001c-.629 2.332-2.13 3.6-4.351 3.6-2.245 0-3.754-1.295-4.371-3.675l.019.074H5.737c-1.488 0-2.466-.502-2.902-1.41-.191-.398-.235-.72-.235-1.163 0-1.016.428-1.648 1.51-2.745l.27-.275c.527-.544.72-.847.72-1.076v-1.6C5.1 5.38 7.988 2.1 12.004 2.1Zm2.462 15.802H9.534C9.99 19.148 10.776 19.7 12 19.7c1.224 0 2.01-.552 2.466-1.798ZM12.004 3.9C9.036 3.9 6.9 6.327 6.9 9.632v1.6c0 .852-.39 1.463-1.228 2.328-.073.075-.142.146-.281.286-.747.758-.991 1.118-.991 1.481 0 .192.014.292.057.382.107.224.433.391 1.28.391h12.526c.82 0 1.153-.169 1.272-.397.05-.095.065-.197.065-.376 0-.363-.244-.723-.99-1.48-.14-.141-.209-.212-.282-.287-.839-.865-1.228-1.476-1.228-2.329v-1.6c0-3.307-2.13-5.731-5.096-5.731Z"/></symbol><symbol viewBox="0 0 24 24" id="icon-notification_slash_outline_24" xmlns="http://www.w3.org/2000/svg"><path fill-rule="evenodd" clip-rule="evenodd" d="M12.004 2.1c4.163 0 6.896 3.446 6.896 7.532v1.6c0 .249.146.537.578.99.474.498 1.016.935 1.402 1.51.317.474.532 1.043.52 1.689a.9.9 0 0 1-1.8-.037c.016-.815-.931-1.402-1.425-1.92-.474-.497-1.075-1.234-1.075-2.233v-1.6c0-3.311-2.134-5.731-5.096-5.731-1.008 0-1.884.269-2.623.735a.9.9 0 0 1-.961-1.521A6.666 6.666 0 0 1 12.004 2.1ZM16.351 17.901c-.629 2.332-2.13 3.6-4.351 3.6S8.277 20.232 7.648 17.9H5.737c-1.488 0-2.466-.502-2.902-1.41-.191-.398-.235-.72-.235-1.163 0-1.293.942-2.156 1.78-3.02.527-.544.72-.847.72-1.076 0-1.493-.038-2.969.455-4.403L3.264 4.536a.9.9 0 1 1 1.272-1.272l16.2 16.2a.9.9 0 0 1-1.272 1.272l-2.836-2.835h-.277Zm-6.817 0h4.932c-.456 1.247-1.242 1.8-2.466 1.8-1.224 0-2.01-.553-2.466-1.8ZM6.9 11.232c0-.976-.06-1.971.123-2.935l7.804 7.804h-9.09c-.847 0-1.173-.167-1.28-.39-.335-.698.52-1.445.934-1.864.722-.731 1.509-1.517 1.509-2.615Z"/></symbol><symbol viewBox="0 0 24 24" id="icon-place_outline_24" xmlns="http://www.w3.org/2000/svg"><path fill-rule="evenodd" clip-rule="evenodd" d="M12 13a3.5 3.5 0 1 0 0-7 3.5 3.5 0 0 0 0 7Zm0-1.8a1.7 1.7 0 1 0 0-3.4 1.7 1.7 0 0 0 0 3.4Z"/><path fill-rule="evenodd" clip-rule="evenodd" d="M4.243 9.77C4.243 5.48 7.714 2 12 2s7.757 3.48 7.757 7.77c0 3.133-1.974 6.852-5.565 11.098a2.871 2.871 0 0 1-4.384 0l-.567-.67.005-.006C6.012 16.227 4.243 12.736 4.243 9.77Zm6.942 9.94a1.071 1.071 0 0 0 1.633-.005c3.545-4.191 5.14-7.483 5.14-9.935 0-3.299-2.67-5.97-5.958-5.97-3.288 0-5.957 2.671-5.957 5.97 0 2.452 1.594 5.744 5.139 9.936l.003.003Z"/></symbol><symbol viewBox="0 0 24 24" id="icon-rectangles_2_outline_24" xmlns="http://www.w3.org/2000/svg"><path fill-rule="evenodd" clip-rule="evenodd" d="M3 7c0-1.4 0-2.1.272-2.635a2.5 2.5 0 0 1 1.093-1.093C4.9 3 5.6 3 7 3h10c1.4 0 2.1 0 2.635.272a2.5 2.5 0 0 1 1.092 1.093C21 4.9 21 5.6 21 7c0 1.4 0 2.1-.273 2.635a2.5 2.5 0 0 1-1.092 1.092C19.1 11 18.4 11 17 11H7c-1.4 0-2.1 0-2.635-.273a2.5 2.5 0 0 1-1.093-1.092C3 9.1 3 8.4 3 7Zm4-2.2h10c.73 0 1.169.001 1.495.028.222.018.307.043.326.05a.7.7 0 0 1 .301.301c.007.02.032.104.05.326.027.326.028.765.028 1.495 0 .73-.001 1.169-.028 1.495a1.476 1.476 0 0 1-.05.326.7.7 0 0 1-.301.301c-.02.007-.104.032-.326.05-.326.027-.765.028-1.495.028H7c-.73 0-1.169-.001-1.495-.028a1.476 1.476 0 0 1-.326-.05.7.7 0 0 1-.301-.301 1.475 1.475 0 0 1-.05-.326C4.801 8.17 4.8 7.73 4.8 7c0-.73.001-1.169.028-1.495.018-.222.043-.307.05-.326a.7.7 0 0 1 .301-.301c.02-.007.104-.032.326-.05C5.83 4.801 6.27 4.8 7 4.8Zm12.12 4.024v.001l.002-.004-.001.003Zm-.295.296ZM3 17c0-1.4 0-2.1.272-2.635a2.5 2.5 0 0 1 1.093-1.092C4.9 13 5.6 13 7 13h10c1.4 0 2.1 0 2.635.273a2.5 2.5 0 0 1 1.092 1.092C21 14.9 21 15.6 21 17c0 1.4 0 2.1-.273 2.635a2.5 2.5 0 0 1-1.092 1.092C19.1 21 18.4 21 17 21H7c-1.4 0-2.1 0-2.635-.273a2.5 2.5 0 0 1-1.093-1.092C3 19.1 3 18.4 3 17Zm4-2.2h10c.73 0 1.169.001 1.495.028.222.018.307.043.326.05a.7.7 0 0 1 .301.301c.007.02.032.104.05.326.027.326.028.765.028 1.495 0 .73-.001 1.169-.028 1.495a1.476 1.476 0 0 1-.05.326.7.7 0 0 1-.301.301c-.02.007-.104.032-.326.05-.326.027-.765.028-1.495.028H7c-.73 0-1.169-.001-1.495-.028a1.476 1.476 0 0 1-.326-.05.7.7 0 0 1-.301-.301 1.476 1.476 0 0 1-.05-.326C4.801 18.17 4.8 17.73 4.8 17c0-.73.001-1.169.028-1.495.018-.222.043-.307.05-.326a.7.7 0 0 1 .301-.301c.02-.007.104-.032.326-.05.326-.027.765-.028 1.495-.028Zm12.121.376v-.001l.001.004-.001-.003Zm.001 3.645a.021.021 0 0 0-.002.004l.001-.001.001-.003Zm-.301.301a.075.075 0 0 0 .004-.002l-.002.001-.002.001Z"/></symbol><symbol viewBox="0 0 24 24" id="icon-refresh_outline_24" xmlns="http://www.w3.org/2000/svg"><path d="M10.274 4.042a.895.895 0 0 1-.02-1.269.904.904 0 0 1 1.274-.02l2.698 2.602a.896.896 0 0 1 0 1.29l-2.698 2.602a.904.904 0 0 1-1.274-.02.895.895 0 0 1 .02-1.27l1.175-1.133a6.2 6.2 0 1 0 5.614 2.598.9.9 0 0 1 1.47-1.039A8 8 0 1 1 11.3 5.031l-1.025-.989Z"/></symbol><symbol viewBox="0 0 24 24" id="icon-repeat_outline_24" xmlns="http://www.w3.org/2000/svg"><path d="M2.005 12c0-3.258 2.642-5.9 5.902-5.9h10.026l-.564-.564a.9.9 0 1 1 1.273-1.272l2.1 2.1a.9.9 0 0 1 0 1.272l-2.1 2.1a.9.9 0 0 1-1.273-1.272l.564-.564H7.907A4.1 4.1 0 0 0 3.805 12v.097a.9.9 0 0 1-1.8 0V12ZM21.104 11.003a.9.9 0 0 1 .9.9V12c0 3.258-2.642 5.9-5.901 5.9H6.074l.564.564a.9.9 0 1 1-1.273 1.272l-2.101-2.1a.9.9 0 0 1 0-1.272l2.1-2.1a.9.9 0 0 1 1.274 1.272l-.564.564h10.029a4.1 4.1 0 0 0 4.101-4.1v-.097a.9.9 0 0 1 .9-.9Z"/></symbol><symbol viewBox="0 0 24 24" id="icon-search_outline_24" xmlns="http://www.w3.org/2000/svg"><path fill-rule="evenodd" clip-rule="evenodd" d="M10.75 3.5a7.25 7.25 0 1 0 4.45 12.974l4.264 4.262a.9.9 0 1 0 1.272-1.272L16.474 15.2A7.25 7.25 0 0 0 10.75 3.5Zm0 1.8a5.45 5.45 0 1 0 0 10.9 5.45 5.45 0 0 0 0-10.9Z"/></symbol><symbol viewBox="0 0 24 24" id="icon-send_outline_24" xmlns="http://www.w3.org/2000/svg"><path fill-rule="evenodd" clip-rule="evenodd" d="M4.891 9.77c-.562-1.438-.959-2.555-1.135-3.273l-.076-.305a22.25 22.25 0 0 1-.204-.862 4.4 4.4 0 0 1-.086-.6 2.303 2.303 0 0 1 .154-1.018 1.958 1.958 0 0 1 1.363-1.17 2.25 2.25 0 0 1 1.123.035c.413.114.857.343 1.22.537 1.04.557 5.078 2.674 8.151 4.284a3150.68 3150.68 0 0 1 3.493 1.832c.498.262.962.505 1.298.715.193.121.453.296.682.529.22.223.61.701.639 1.42.03.746-.346 1.265-.584 1.521a3.437 3.437 0 0 1-.686.552c-.313.197-.744.424-1.19.659l-.256.135c-.461.243-1.338.708-2.415 1.279-3.115 1.65-7.907 4.19-9.153 4.837-.391.202-.847.43-1.254.544a2.242 2.242 0 0 1-1.152.032 1.943 1.943 0 0 1-1.379-1.3c-.14-.434-.1-.828-.081-.991.024-.206.069-.407.107-.566.037-.154.082-.326.126-.492l.009-.034c.048-.183.099-.376.151-.588.174-.707.564-1.814 1.118-3.242a4.894 4.894 0 0 1 1.771-2.245 4.893 4.893 0 0 1-1.754-2.224Zm4.194 1.313.372.073.32.064.3.06c.93.187 1.403.296 1.507.466a.501.501 0 0 1-.002.523c-.105.169-.579.274-1.509.456a187.113 187.113 0 0 1-1.12.215c-1.099.202-2.01.942-2.4 1.951-.49 1.261-.82 2.193-.989 2.793a7.125 7.125 0 0 0-.063.24c-.058.234-.113.445-.163.632-.333 1.264-.389 1.475 1.062.723l.466-.244.24-.126c1.826-.958 5.735-3.03 8.418-4.451l2.431-1.289.327-.172a1.19 1.19 0 0 0 .016-.008c.936-.493 1.414-.75 1.416-1.013.003-.26-.462-.523-1.411-1.023a1.44 1.44 0 0 1-.017-.009l-.457-.24c-.604-.318-1.817-.954-3.242-1.7C12 7.648 8.716 5.927 7.113 5.08A367.57 367.57 0 0 1 6.4 4.7c-1.428-.764-1.361-.499-.983 1.018l.087.35.003.013a6.959 6.959 0 0 0 .057.214c.172.608.506 1.548 1.003 2.82.393 1.006 1.301 1.742 2.397 1.944l.121.024Z"/></symbol><symbol viewBox="0 0 24 24" id="icon-services_outline_24" xmlns="http://www.w3.org/2000/svg"><path fill-rule="evenodd" clip-rule="evenodd" d="m13.794 4.69.024-.023.848-.849.024-.024c.277-.276.522-.521.742-.708a2.44 2.44 0 0 1 .826-.49 2.4 2.4 0 0 1 1.484 0c.329.107.592.292.826.49.22.187.465.432.742.708l.023.024.849.849.024.023c.276.277.521.522.708.742.198.233.383.497.49.826a2.4 2.4 0 0 1 0 1.484c-.107.329-.292.593-.49.826-.187.22-.432.465-.709.742l-.023.023-.849.849-.023.024a13.52 13.52 0 0 1-.742.708c-.234.198-.497.383-.826.49a2.4 2.4 0 0 1-1.484 0c-.329-.107-.593-.292-.826-.49-.22-.187-.465-.432-.742-.708l-.024-.024-.848-.849-.024-.023c-.277-.277-.521-.522-.708-.742a2.438 2.438 0 0 1-.49-.826 2.4 2.4 0 0 1 0-1.484c.107-.329.291-.593.49-.826.187-.22.431-.465.708-.742Zm.664 1.906c-.126.15-.146.205-.15.219a.6.6 0 0 0 0 .37c.004.014.024.07.15.219.133.156.325.35.633.657l.848.848c.308.308.5.5.657.633.15.126.205.146.218.15a.6.6 0 0 0 .371 0c.014-.004.07-.024.219-.15.156-.133.35-.325.657-.633l.848-.848c.308-.308.5-.5.633-.657.126-.15.146-.205.15-.219a.6.6 0 0 0 0-.37c-.004-.014-.024-.07-.15-.219a12.66 12.66 0 0 0-.633-.657l-.848-.848c-.308-.308-.5-.5-.657-.633-.15-.126-.205-.146-.219-.15a.6.6 0 0 0-.37 0c-.014.004-.07.024-.219.15-.156.133-.35.325-.657.633l-.848.848c-.308.308-.5.5-.633.657ZM7.6 10.9h.033c.392 0 .738 0 1.025-.023.306-.025.623-.081.932-.239a2.4 2.4 0 0 0 1.048-1.048c.158-.309.214-.626.239-.932.023-.287.023-.633.023-1.025V6.367c0-.392 0-.738-.023-1.025-.025-.306-.081-.623-.239-.932A2.4 2.4 0 0 0 9.59 3.362c-.309-.158-.626-.214-.932-.239A13.48 13.48 0 0 0 7.633 3.1H6.367c-.392 0-.738 0-1.026.023-.305.025-.622.081-.93.239A2.4 2.4 0 0 0 3.36 4.41c-.157.309-.213.626-.238.932-.023.287-.023.633-.023 1.025V7.633c0 .392 0 .738.023 1.025.025.306.081.623.239.932a2.4 2.4 0 0 0 1.048 1.048c.309.158.626.214.931.239.288.023.634.023 1.026.023H7.6Zm1.172-1.865c-.012.006-.066.032-.26.048-.205.016-.477.017-.912.017H6.4c-.435 0-.707 0-.912-.017-.194-.016-.248-.042-.26-.048a.6.6 0 0 1-.263-.263c-.006-.012-.032-.066-.048-.26A12.65 12.65 0 0 1 4.9 7.6V6.4c0-.435 0-.707.017-.912.016-.194.042-.248.048-.26a.6.6 0 0 1 .263-.263c.012-.006.066-.032.26-.048.205-.016.477-.017.912-.017h1.2c.435 0 .707 0 .912.017.194.016.248.042.26.048a.6.6 0 0 1 .263.263c.006.012.032.066.048.26.016.205.017.477.017.912v1.2c0 .435 0 .707-.017.912-.016.194-.042.248-.048.26a.6.6 0 0 1-.263.263ZM7.6 20.9h.033c.392 0 .738 0 1.025-.023.306-.025.623-.081.932-.239a2.4 2.4 0 0 0 1.048-1.048c.158-.309.214-.626.239-.931.023-.288.023-.634.023-1.026V16.367c0-.392 0-.738-.023-1.026-.025-.305-.081-.622-.239-.93a2.4 2.4 0 0 0-1.048-1.05c-.309-.157-.626-.213-.932-.238-.287-.023-.633-.023-1.025-.023H6.367c-.392 0-.738 0-1.026.023-.305.025-.622.081-.93.239a2.4 2.4 0 0 0-1.05 1.048 2.44 2.44 0 0 0-.238.931c-.023.288-.023.634-.023 1.026V17.633c0 .392 0 .738.023 1.026.025.305.081.622.239.93a2.4 2.4 0 0 0 1.048 1.05c.309.157.626.213.931.238.288.023.634.023 1.026.023H7.6Zm1.172-1.865c-.012.006-.066.032-.26.048-.205.016-.477.017-.912.017H6.4c-.435 0-.707 0-.912-.017-.194-.016-.248-.042-.26-.048a.6.6 0 0 1-.263-.263c-.006-.012-.032-.066-.048-.26A12.65 12.65 0 0 1 4.9 17.6v-1.2c0-.435 0-.707.017-.912.016-.194.042-.248.048-.26a.6.6 0 0 1 .263-.263c.012-.006.066-.032.26-.047.205-.017.477-.018.912-.018h1.2c.435 0 .707 0 .912.018.194.015.248.041.26.047a.6.6 0 0 1 .263.263c.006.012.032.066.048.26.016.205.017.477.017.912v1.2c0 .435 0 .707-.017.912-.016.194-.042.248-.048.26a.6.6 0 0 1-.263.263ZM17.6 20.9h.033c.392 0 .738 0 1.026-.023.305-.025.622-.081.93-.239a2.4 2.4 0 0 0 1.05-1.048c.157-.309.213-.626.238-.931.023-.288.023-.634.023-1.026V16.367c0-.392 0-.738-.023-1.026-.025-.305-.081-.622-.239-.93a2.4 2.4 0 0 0-1.048-1.05c-.309-.157-.626-.213-.931-.238-.288-.023-.634-.023-1.026-.023H16.367c-.392 0-.738 0-1.026.023-.305.025-.622.081-.93.239a2.4 2.4 0 0 0-1.05 1.048c-.157.309-.213.626-.238.931-.023.288-.023.634-.023 1.026V17.633c0 .392 0 .738.023 1.026.025.305.081.622.239.93a2.4 2.4 0 0 0 1.048 1.05c.309.157.626.213.931.238.288.023.634.023 1.025.023H17.6Zm1.172-1.865c-.012.006-.066.032-.26.048-.205.016-.477.017-.912.017h-1.2c-.435 0-.707 0-.912-.017-.194-.016-.248-.042-.26-.048a.6.6 0 0 1-.263-.263c-.006-.012-.032-.066-.048-.26a12.688 12.688 0 0 1-.017-.912v-1.2c0-.435 0-.707.017-.912.016-.194.042-.248.048-.26a.6.6 0 0 1 .263-.263c.012-.006.066-.032.26-.047.205-.017.477-.018.912-.018h1.2c.435 0 .707 0 .912.018.194.015.248.041.26.047a.6.6 0 0 1 .263.263c.006.012.032.066.047.26.017.205.018.477.018.912v1.2c0 .435 0 .707-.018.912-.015.194-.041.248-.047.26a.6.6 0 0 1-.263.263Z"/></symbol><symbol viewBox="0 0 24 24" id="icon-share_outline_24" xmlns="http://www.w3.org/2000/svg"><path d="M11.996 3.725A2.15 2.15 0 0 0 10 5.87l-.001 2.117-.02.005a9.904 9.904 0 0 0-7.827 10.721c.083.811 1.116 1.103 1.611.455l.187-.237a9.082 9.082 0 0 1 5.836-3.265l.213-.026.001 2.494a2.15 2.15 0 0 0 3.476 1.692l7.824-6.132a2.15 2.15 0 0 0 0-3.384l-7.824-6.132a2.15 2.15 0 0 0-1.326-.458l-.154.005Zm.154 1.795a.35.35 0 0 1 .216.075l7.824 6.132a.35.35 0 0 1 0 .55l-7.824 6.133a.35.35 0 0 1-.566-.276l-.001-3.447a.9.9 0 0 0-.915-.9l-.233.004-.342.017a10.88 10.88 0 0 0-6.119 2.365l-.174.144.024-.135a8.103 8.103 0 0 1 6.968-6.537.9.9 0 0 0 .791-.893L11.8 5.87a.35.35 0 0 1 .35-.35Z"/></symbol><symbol viewBox="0 0 24 24" id="icon-shopping_cart_outline_24" xmlns="http://www.w3.org/2000/svg"><path fill-rule="evenodd" clip-rule="evenodd" d="M3.493 4.934c-.085-.025-.21-.034-.834-.034H2a.9.9 0 1 1 0-1.8h.76c.463 0 .87-.001 1.235.105A2.65 2.65 0 0 1 5.654 4.62c.07.15.122.31.164.48h12.318c.43 0 .793 0 1.088.017.305.018.606.057.899.167a2.9 2.9 0 0 1 1.856 2.314c.043.309.016.611-.033.913-.047.292-.126.646-.219 1.066l-.006.026-.633 2.851-.025.113c-.14.633-.248 1.12-.467 1.53a3.4 3.4 0 0 1-2.093 1.68c-.449.124-.947.123-1.596.123H9.365c-.686 0-1.212 0-1.68-.135a3.4 3.4 0 0 1-2.127-1.816c-.207-.44-.29-.96-.397-1.637l-.02-.12-.951-5.986c-.098-.616-.127-.738-.165-.818a.85.85 0 0 0-.532-.454ZM6.123 6.9l.796 5.008c.136.856.184 1.097.267 1.274a1.6 1.6 0 0 0 1.002.854c.188.055.433.064 1.3.064h7.304c.818 0 1.05-.008 1.23-.058a1.6 1.6 0 0 0 .985-.79c.088-.166.146-.39.323-1.188l.634-2.852c.1-.453.167-.754.205-.988.037-.23.034-.327.027-.377a1.1 1.1 0 0 0-.704-.877c-.047-.018-.141-.042-.374-.056A19.226 19.226 0 0 0 18.11 6.9H6.123ZM7 19.25a1.75 1.75 0 1 1 3.5 0 1.75 1.75 0 0 1-3.5 0Zm10.25-1.75a1.75 1.75 0 1 0 0 3.5 1.75 1.75 0 0 0 0-3.5Z"/></symbol><symbol viewBox="0 0 24 24" id="icon-smartphone_outline_24" xmlns="http://www.w3.org/2000/svg"><path fill-rule="evenodd" clip-rule="evenodd" d="M11.18 3.9h1.64c1.094 0 1.806.001 2.35.046.522.042.728.116.838.172a2 2 0 0 1 .874.874c.056.11.13.316.172.839.045.543.046 1.255.046 2.349v7.64c0 1.094-.001 1.806-.046 2.35-.042.522-.116.728-.172.838a2 2 0 0 1-.874.874c-.11.056-.316.13-.839.172-.543.045-1.255.046-2.349.046h-1.64c-1.094 0-1.806-.001-2.35-.046-.522-.042-.728-.116-.838-.172a2 2 0 0 1-.874-.874c-.056-.11-.13-.316-.172-.839-.045-.543-.046-1.255-.046-2.349V8.18c0-1.094.001-1.806.046-2.35.042-.522.116-.728.172-.838a2 2 0 0 1 .874-.874c.11-.056.316-.13.839-.172.543-.045 1.255-.046 2.349-.046ZM5.1 8.18c0-2.128 0-3.192.414-4.005a3.8 3.8 0 0 1 1.66-1.66C7.989 2.1 9.053 2.1 11.18 2.1h1.64c2.128 0 3.192 0 4.005.414a3.8 3.8 0 0 1 1.66 1.66c.415.814.415 1.878.415 4.006v7.64c0 2.128 0 3.192-.414 4.005a3.8 3.8 0 0 1-1.66 1.66c-.814.415-1.878.415-4.006.415h-1.64c-2.128 0-3.192 0-4.005-.414a3.8 3.8 0 0 1-1.66-1.66C5.1 19.011 5.1 17.947 5.1 15.82V8.18Zm6.15 8.02a.9.9 0 1 0 0 1.8h1.5a.9.9 0 0 0 0-1.8h-1.5Z"/></symbol><symbol viewBox="0 0 24 24" id="icon-thumbs_down_outline_24" xmlns="http://www.w3.org/2000/svg"><path fill-rule="evenodd" clip-rule="evenodd" d="m15.5 14.921-.579.483a.41.41 0 0 0-.138.227l-.88 4.019A2.986 2.986 0 0 1 8 19.01V17c-1.736-.006-3.266-.43-4.365-1.468C2.52 14.478 2 12.935 2 11.022v-1.08c0-1.913.52-3.45 1.639-4.495C4.746 4.412 6.29 4 8.037 4h7.523c.39-.496.955-.846 1.605-.96.227-.04.481-.04.77-.04h.13c.289 0 .542 0 .77.04a2.619 2.619 0 0 1 2.125 2.125c.04.228.04.481.04.77v7.13c0 .289 0 .542-.04.77a2.619 2.619 0 0 1-2.125 2.125c-.228.04-.481.04-.77.04h-.13c-.289 0-.543 0-.77-.04a2.617 2.617 0 0 1-1.664-1.039Zm-3.355 4.344A1.186 1.186 0 0 1 9.8 19.01V16.1a.9.9 0 0 0-.9-.9h-.863c-1.489 0-2.514-.36-3.166-.976C4.23 13.617 3.8 12.62 3.8 11.022v-1.08c0-1.598.428-2.583 1.068-3.18.65-.608 1.675-.962 3.17-.962H15v7.202a.932.932 0 0 0-.076.057l-1.155.962a2.21 2.21 0 0 0-.744 1.225l-.88 4.019Zm6.378-5.077c-.05.008-.13.012-.523.012-.392 0-.472-.003-.523-.012a.819.819 0 0 1-.665-.665c-.009-.05-.012-.13-.012-.523V6c0-.392.003-.472.012-.523a.819.819 0 0 1 .665-.665c.05-.009.13-.012.523-.012.392 0 .472.003.523.012.34.06.605.326.665.665.009.05.012.13.012.523v7c0 .392-.003.472-.012.523a.819.819 0 0 1-.665.665Z"/></symbol><symbol viewBox="0 0 24 24" id="icon-thumbs_up_outline_24" xmlns="http://www.w3.org/2000/svg"><path fill-rule="evenodd" clip-rule="evenodd" d="m8.521 9.206.582-.582a.39.39 0 0 0 .104-.187l.978-4.207a2.895 2.895 0 0 1 5.715.655V7.1h.1c1.854 0 3.392.394 4.449 1.451S21.9 11.146 21.9 13v1c0 1.922-.553 3.442-1.663 4.472C19.14 19.491 17.638 19.9 16 19.9H8.45a2.4 2.4 0 0 1-1.329.918c-.31.083-.658.083-1.031.082h-.18c-.373 0-.722.001-1.031-.082a2.4 2.4 0 0 1-1.697-1.697c-.083-.31-.083-.658-.082-1.031v-7.18c0-.373-.001-.722.082-1.031a2.4 2.4 0 0 1 1.697-1.697c.31-.083.658-.083 1.031-.082h.18c.373 0 .722-.001 1.031.082a2.4 2.4 0 0 1 1.4 1.024Zm3.418-4.569a1.095 1.095 0 0 1 2.161.248V8a.9.9 0 0 0 .9.9h1c1.646 0 2.608.356 3.176.924.568.568.924 1.53.924 3.176v1c0 1.579-.447 2.558-1.087 3.153-.653.606-1.651.947-3.013.947-.602 0-7.1.01-7.1-.01v-6.717l1.476-1.476c.289-.29.492-.654.584-1.052l.979-4.208ZM7.1 11.006V18c0 .523-.008.608-.02.655a.6.6 0 0 1-.425.425c-.047.012-.132.02-.655.02s-.608-.008-.655-.02a.6.6 0 0 1-.425-.425c-.012-.047-.02-.132-.02-.655v-7c0-.523.008-.608.02-.655a.6.6 0 0 1 .425-.425c.047-.012.132-.02.655-.02s.608.008.655.02a.6.6 0 0 1 .425.425c.012.047.017.139.02.66Z"/></symbol><symbol viewBox="0 0 24 24" id="icon-user_add_outline_24" xmlns="http://www.w3.org/2000/svg"><path d="M18.85 7.95A2.849 2.849 0 0 0 16 5.1a2.849 2.849 0 0 0-2.85 2.85A2.849 2.849 0 0 0 16 10.8a2.849 2.849 0 0 0 2.85-2.85Zm1.8 0A4.649 4.649 0 0 1 16 12.6a4.649 4.649 0 0 1-4.65-4.65A4.649 4.649 0 0 1 16 3.3a4.649 4.649 0 0 1 4.65 4.65ZM9.9 18.429c0 .768-.09.671.335.671h11.53c.426 0 .335.097.335-.671 0-1.893-2.778-3.029-6.1-3.029-3.322 0-6.1 1.136-6.1 3.029ZM16 13.6c4.227 0 7.9 1.502 7.9 4.829 0 1.735-.685 2.471-2.135 2.471h-11.53c-1.45 0-2.135-.736-2.135-2.471 0-3.327 3.673-4.829 7.9-4.829ZM5 6.5a.9.9 0 0 1 .9.9l-.001 2.7H8.6a.9.9 0 1 1 0 1.8H5.899l.001 2.7a.9.9 0 0 1-1.8 0l-.001-2.7H1.4a.9.9 0 0 1 0-1.8h2.699L4.1 7.4a.9.9 0 0 1 .9-.9Z"/></symbol><symbol viewBox="0 0 24 24" id="icon-user_circle_outline_24" xmlns="http://www.w3.org/2000/svg"><path fill-rule="evenodd" clip-rule="evenodd" d="M12 8.8a1.7 1.7 0 1 0 0 3.4 1.7 1.7 0 0 0 0-3.4Zm-3.5 1.7a3.5 3.5 0 1 1 7 0 3.5 3.5 0 0 1-7 0Z"/><path fill-rule="evenodd" clip-rule="evenodd" d="M12 2.1A9.872 9.872 0 0 0 5 5a9.872 9.872 0 0 0-2.9 7c0 2.733 1.11 5.21 2.9 7a9.872 9.872 0 0 0 7 2.9c2.733 0 5.21-1.11 7-2.9a9.872 9.872 0 0 0 2.9-7c0-2.734-1.11-5.21-2.9-7a9.872 9.872 0 0 0-7-2.9Zm4.382 16.713A7.067 7.067 0 0 0 12 17.3a7.066 7.066 0 0 0-4.382 1.513A8.06 8.06 0 0 0 12 20.1a8.06 8.06 0 0 0 4.382-1.287ZM6.272 6.273A8.072 8.072 0 0 1 12 3.9c2.237 0 4.26.906 5.727 2.372A8.072 8.072 0 0 1 20.1 12a8.07 8.07 0 0 1-2.297 5.651A8.868 8.868 0 0 0 12 15.5a8.869 8.869 0 0 0-5.803 2.151A8.07 8.07 0 0 1 3.9 12c0-2.237.906-4.26 2.372-5.728ZM8.5 10.5a3.5 3.5 0 1 1 7 0 3.5 3.5 0 0 1-7 0ZM12 8.8a1.7 1.7 0 1 0 0 3.4 1.7 1.7 0 0 0 0-3.4Z"/></symbol><symbol viewBox="0 0 24 24" id="icon-users_3_outline_24" xmlns="http://www.w3.org/2000/svg"><path fill-rule="evenodd" clip-rule="evenodd" d="M8.5 8.1a3.5 3.5 0 1 1 7 0 3.5 3.5 0 0 1-7 0ZM12 9.8a1.7 1.7 0 1 1 0-3.4 1.7 1.7 0 0 1 0 3.4ZM12 13.1c-1.504 0-2.925.354-4.002 1.015-1.078.662-1.898 1.702-1.898 3.04 0 .81.279 1.532.852 2.043.558.497 1.293.702 2.048.702h6c.755 0 1.49-.205 2.05-.702.572-.51.85-1.234.85-2.043 0-1.338-.82-2.378-1.898-3.04C14.926 13.454 13.504 13.1 12 13.1Zm-4.1 4.055c0-.518.306-1.055 1.04-1.506.737-.453 1.815-.749 3.06-.749s2.324.296 3.06.749c.735.451 1.04.988 1.04 1.506 0 .386-.121.585-.249.699-.141.126-.406.246-.85.246H9c-.446 0-.71-.12-.852-.246-.127-.114-.249-.313-.249-.7Z"/><path d="M5.903 13.7a.9.9 0 0 0-.9-.9c-2.006 0-3.95 1.276-3.95 3.357 0 1.263.87 2.743 2.607 2.743a.9.9 0 1 0 0-1.8.704.704 0 0 1-.575-.254 1.088 1.088 0 0 1-.232-.689c0-.73.74-1.557 2.15-1.557a.9.9 0 0 0 .9-.9ZM6.314 5.46a.9.9 0 1 1 .255 1.78A1.243 1.243 0 0 0 5.5 8.467c0 .68.555 1.239 1.25 1.239a.9.9 0 0 1 0 1.8A3.044 3.044 0 0 1 3.7 8.466 3.043 3.043 0 0 1 6.314 5.46ZM18.096 13.7a.9.9 0 0 1 .9-.9c2.007 0 3.95 1.276 3.95 3.357 0 1.263-.87 2.743-2.607 2.743a.9.9 0 0 1 0-1.8c.272 0 .45-.104.576-.254.14-.167.232-.417.232-.689 0-.73-.74-1.557-2.15-1.557a.9.9 0 0 1-.9-.9ZM17.686 5.46a.9.9 0 1 0-.255 1.78 1.243 1.243 0 0 1 1.07 1.226c0 .68-.556 1.239-1.25 1.239a.9.9 0 1 0 0 1.8c1.679 0 3.05-1.356 3.05-3.039a3.043 3.043 0 0 0-2.615-3.007Z"/></symbol><symbol viewBox="0 0 24 24" id="icon-users_outline_24" xmlns="http://www.w3.org/2000/svg"><path d="M17 13.5c3.689 0 6.9 1.31 6.9 4.257 0 1.554-.644 2.243-1.959 2.243h-5.596c-.543 0-.927-.551-.82-1.084.076-.373.39-.716.77-.716l5.783.002s.022-.297.022-.445c0-1.512-2.318-2.457-5.1-2.457-.472 0-.93.027-1.367.08a.902.902 0 0 1-.85-.398c-.35-.516-.166-1.296.453-1.375A14.063 14.063 0 0 1 17 13.5Zm-10 0c3.688 0 6.9 1.31 6.9 4.257 0 1.554-.644 2.243-1.959 2.243H2.06C.744 20 .1 19.311.1 17.757.1 14.81 3.312 13.5 7 13.5Zm0 1.8c-2.782 0-5.1.945-5.1 2.457 0 .149.02.445.02.445h10.158s.022-.297.022-.445c0-1.512-2.318-2.457-5.1-2.457ZM17 4.2a4.15 4.15 0 0 1 4.15 4.15A4.15 4.15 0 0 1 17 12.5a4.15 4.15 0 0 1-4.15-4.15A4.15 4.15 0 0 1 17 4.2Zm-10 0a4.15 4.15 0 0 1 4.15 4.15A4.15 4.15 0 0 1 7 12.5a4.15 4.15 0 0 1-4.15-4.15A4.15 4.15 0 0 1 7 4.2ZM17 6a2.35 2.35 0 1 0 0 4.7A2.35 2.35 0 1 0 17 6ZM7 6a2.35 2.35 0 1 0 0 4.7A2.35 2.35 0 1 0 7 6Z"/></symbol><symbol viewBox="0 0 24 24" id="icon-view_outline_24" xmlns="http://www.w3.org/2000/svg"><path d="M12 4.6c5.2 0 10.4 4.237 10.4 7.4 0 3.163-5.2 7.4-10.4 7.4S1.6 15.163 1.6 12c0-3.163 5.2-7.4 10.4-7.4Zm0 1.8c-4.278 0-8.6 3.522-8.6 5.6s4.322 5.6 8.6 5.6 8.6-3.522 8.6-5.6-4.322-5.6-8.6-5.6Zm0 2.2a3.4 3.4 0 1 1 0 6.8 3.4 3.4 0 0 1 0-6.8Zm0 1.8a1.6 1.6 0 1 0 0 3.2 1.6 1.6 0 0 0 0-3.2Z"/></symbol><symbol viewBox="0 0 24 24" id="icon-volume_outline_24" xmlns="http://www.w3.org/2000/svg"><path d="M14.25 4c.902 0 1.75.694 1.75 1.689V18.31c0 .995-.848 1.689-1.75 1.689-.762 0-1.505-.28-2.063-.798l-4.24-3.935H6.14c-1.118 0-2.14-.856-2.14-2.05v-2.433c0-1.195 1.022-2.05 2.14-2.05h1.807l4.24-3.936A3.035 3.035 0 0 1 14.25 4Zm-.05 1.801a1.23 1.23 0 0 0-.789.316l-4.499 4.176a.9.9 0 0 1-.612.24H6.14c-.14 0-.34.085-.34.25v2.433c0 .166.2.25.34.25H8.3a.9.9 0 0 1 .612.241l4.5 4.175c.2.187.481.305.788.317V5.801Zm7.338.464C23.058 7.792 24 9.792 24 12s-.943 4.208-2.462 5.735a.9.9 0 1 1-1.276-1.27C21.489 15.232 22.2 13.675 22.2 12c0-1.674-.71-3.232-1.938-4.465a.9.9 0 1 1 1.276-1.27Zm-2.551 3.053C19.613 10.058 20 10.983 20 12s-.387 1.943-1.013 2.682a.9.9 0 0 1-1.374-1.164c.383-.451.587-.974.587-1.518s-.204-1.067-.587-1.518a.9.9 0 0 1 1.374-1.164Z"/></symbol><symbol viewBox="0 0 24 24" id="icon-wallet_outline_24" xmlns="http://www.w3.org/2000/svg"><path fill-rule="evenodd" clip-rule="evenodd" d="M7.762 3.1H15.5a3.4 3.4 0 0 1 3.4 3.4v.732c.305.06.593.152.87.293a3.9 3.9 0 0 1 1.705 1.704c.239.47.336.971.381 1.527.044.537.044 1.198.044 2.006v1.476c0 .808 0 1.469-.044 2.006-.045.556-.142 1.058-.381 1.526a3.9 3.9 0 0 1-1.705 1.705c-.468.239-.97.336-1.526.381-.537.044-1.198.044-2.006.044H7.762c-.808 0-1.469 0-2.006-.044a8.284 8.284 0 0 1-.103-.009c-.515-.049-.984-.148-1.424-.372a3.9 3.9 0 0 1-1.704-1.704c-.239-.47-.336-.971-.381-1.527-.044-.537-.044-1.198-.044-2.006V8.762c0-.808 0-1.469.044-2.006.045-.556.142-1.058.381-1.527a3.9 3.9 0 0 1 1.704-1.704c.47-.239.971-.336 1.527-.381C6.293 3.1 6.954 3.1 7.762 3.1ZM3.9 9v5.2c0 .855 0 1.442.038 1.897.036.445.103.683.19.856a2.1 2.1 0 0 0 .919.918c.172.088.411.155.856.191.455.037 1.042.038 1.897.038h8.4c.855 0 1.442 0 1.897-.038.445-.036.683-.103.856-.19a2.1 2.1 0 0 0 .918-.919c.088-.172.155-.411.191-.856.037-.455.038-1.042.038-1.897v-1.4c0-.855 0-1.442-.038-1.897-.036-.445-.103-.684-.19-.856a2.1 2.1 0 0 0-.919-.918c-.172-.088-.411-.155-.856-.191C17.642 8.9 17.055 8.9 16.2 8.9H3.9V9Zm.024-1.9h12.314c.308 0 .595 0 .862.002V6.5a1.6 1.6 0 0 0-1.6-1.6H7.8c-.855 0-1.442 0-1.897.038-.445.036-.684.103-.856.19a2.1 2.1 0 0 0-.918.919c-.088.172-.155.411-.191.856l-.014.197ZM15.1 14a.9.9 0 0 1 .9-.9h1.2a.9.9 0 0 1 0 1.8H16a.9.9 0 0 1-.9-.9Z"/></symbol><symbol viewBox="0 0 24 24" id="icon-warning_triangle_outline_24" xmlns="http://www.w3.org/2000/svg"><path fill-rule="evenodd" clip-rule="evenodd" d="M9.489 4.55c1.116-1.933 3.906-1.933 5.022 0l6.929 12c1.116 1.933-.28 4.35-2.512 4.35H5.072c-2.233 0-3.628-2.417-2.512-4.35l6.929-12Zm3.464.9a1.1 1.1 0 0 0-1.906 0l-6.928 12a1.1 1.1 0 0 0 .953 1.65h13.856a1.1 1.1 0 0 0 .953-1.65l-6.928-12Z"/><path fill-rule="evenodd" clip-rule="evenodd" d="M12 8c.497 0 .9.374.9.836v4.828c0 .462-.403.836-.9.836s-.9-.374-.9-.836V8.836c0-.462.403-.836.9-.836Z"/><path d="M13 16.5a1 1 0 1 1-2 0 1 1 0 0 1 2 0Z"/></symbol></svg>